<mxfile host="Electron" modified="2020-11-07T19:56:05.873Z" agent="5.0 (Windows NT 10.0; Win64; x64) AppleWebKit/537.36 (KHTML, like Gecko) draw.io/13.7.9 Chrome/85.0.4183.121 Electron/10.1.3 Safari/537.36" etag="U5hVo1qnQo13HtYcZSaP" compressed="false" version="13.7.9" type="device" pages="4">
  <diagram id="R2lEEEUBdFMjLlhIrx00" name="Desafio 1 MER">
    <mxGraphModel dx="1092" dy="504" grid="1" gridSize="10" guides="1" tooltips="1" connect="1" arrows="1" fold="1" page="1" pageScale="1" pageWidth="1100" pageHeight="850" background="#EEEEEE" math="0" shadow="0" extFonts="Permanent Marker^https://fonts.googleapis.com/css?family=Permanent+Marker">
      <root>
        <mxCell id="0" />
        <mxCell id="1" parent="0" />
        <mxCell id="lNCvDVEjGaKlvMAJ3pHB-41" value="&lt;p dir=&quot;ltr&quot; class=&quot;CDt4Ke zfr3Q&quot; style=&quot;box-sizing: border-box ; margin: 12px 0px 0px ; outline: none ; position: relative ; color: rgb(33 , 33 , 33) ; font-size: 11pt ; font-family: &amp;#34;lato&amp;#34; , sans-serif ; line-height: 1.6667&quot;&gt;Diseñar un esquema E/R que recoja la organización de una base de datos para contener la información sobre la circulación de transporte en todas las rutas del país para análisis de contaminación del aire, sabiendo que se deben cumplir las siguientes especificaciones para conocer sobre rutas:&lt;/p&gt;&lt;p dir=&quot;ltr&quot; class=&quot;CDt4Ke zfr3Q&quot; style=&quot;box-sizing: border-box ; margin: 12px 0px 0px ; outline: none ; position: relative ; color: rgb(33 , 33 , 33) ; font-size: 11pt ; font-family: &amp;#34;lato&amp;#34; , sans-serif ; line-height: 1.6667&quot;&gt;- Las rutas están divididas en varias categorías (locales, comerciales, regionales, nacionales, autovías, etc).&lt;/p&gt;&lt;p dir=&quot;ltr&quot; class=&quot;CDt4Ke zfr3Q&quot; style=&quot;box-sizing: border-box ; margin: 12px 0px 0px ; outline: none ; position: relative ; color: rgb(33 , 33 , 33) ; font-size: 11pt ; font-family: &amp;#34;lato&amp;#34; , sans-serif ; line-height: 1.6667&quot;&gt;- Las rutas se dividen en tramos. Un tramo siempre pertenece a una única ruta y no puede cambiar de ruta.&lt;/p&gt;&lt;p dir=&quot;ltr&quot; class=&quot;CDt4Ke zfr3Q&quot; style=&quot;box-sizing: border-box ; margin: 12px 0px 0px ; outline: none ; position: relative ; color: rgb(33 , 33 , 33) ; font-size: 11pt ; font-family: &amp;#34;lato&amp;#34; , sans-serif ; line-height: 1.6667 ; padding-bottom: 0px&quot;&gt;- Un tramo puede pasar por varias ciudades, interesando conocer el Km de la ruta y la ciudad donde empieza el tramo y en donde termina.&lt;/p&gt;" style="text;html=1;strokeColor=none;fillColor=none;align=center;verticalAlign=middle;whiteSpace=wrap;rounded=0;fontColor=#1A1A1A;" parent="1" vertex="1">
          <mxGeometry x="10" y="10" width="830" height="200" as="geometry" />
        </mxCell>
        <mxCell id="2" value="Ruta" style="whiteSpace=wrap;html=1;align=center;fillColor=#F5AB50;strokeColor=#909090;fontColor=#1A1A1A;" parent="1" vertex="1">
          <mxGeometry x="280" y="340" width="80" height="40" as="geometry" />
        </mxCell>
        <mxCell id="IX8YXHl2S8Epsp9EXuZL-2" value="Ciudad" style="whiteSpace=wrap;html=1;align=center;fillColor=#F5AB50;strokeColor=#909090;fontColor=#1A1A1A;" parent="1" vertex="1">
          <mxGeometry x="680" y="620" width="80" height="40" as="geometry" />
        </mxCell>
        <mxCell id="IX8YXHl2S8Epsp9EXuZL-3" value="Tramos" style="whiteSpace=wrap;html=1;align=center;fillColor=#F5AB50;strokeColor=#909090;fontColor=#1A1A1A;" parent="1" vertex="1">
          <mxGeometry x="280" y="620" width="80" height="40" as="geometry" />
        </mxCell>
        <mxCell id="IX8YXHl2S8Epsp9EXuZL-5" value="Categoria" style="whiteSpace=wrap;html=1;align=center;fillColor=#F5AB50;strokeColor=#909090;fontColor=#1A1A1A;" parent="1" vertex="1">
          <mxGeometry x="680" y="340" width="80" height="40" as="geometry" />
        </mxCell>
        <mxCell id="IX8YXHl2S8Epsp9EXuZL-6" value="&lt;font style=&quot;font-size: 12px&quot;&gt;Pertenece&lt;/font&gt;" style="shape=rhombus;perimeter=rhombusPerimeter;whiteSpace=wrap;html=1;align=center;fillColor=#F5AB50;fontColor=#1A1A1A;fontSize=11;strokeColor=#909090;" parent="1" vertex="1">
          <mxGeometry x="480" y="340" width="80" height="40" as="geometry" />
        </mxCell>
        <mxCell id="IX8YXHl2S8Epsp9EXuZL-7" value="(1,n)" style="endArrow=none;html=1;rounded=0;fontSize=11;exitX=1;exitY=0.5;exitDx=0;exitDy=0;strokeColor=#182E3E;fontColor=#1A1A1A;labelBackgroundColor=#EEEEEE;" parent="1" source="2" target="IX8YXHl2S8Epsp9EXuZL-6" edge="1">
          <mxGeometry relative="1" as="geometry">
            <mxPoint x="490" y="230" as="sourcePoint" />
            <mxPoint x="650" y="230" as="targetPoint" />
            <Array as="points" />
          </mxGeometry>
        </mxCell>
        <mxCell id="IX8YXHl2S8Epsp9EXuZL-8" value="(1,1)" style="endArrow=none;html=1;rounded=0;strokeColor=#182E3E;fontSize=11;fontColor=#1A1A1A;labelBackgroundColor=#EEEEEE;" parent="1" source="IX8YXHl2S8Epsp9EXuZL-6" target="IX8YXHl2S8Epsp9EXuZL-5" edge="1">
          <mxGeometry relative="1" as="geometry">
            <mxPoint x="510" y="290" as="sourcePoint" />
            <mxPoint x="670" y="290" as="targetPoint" />
          </mxGeometry>
        </mxCell>
        <mxCell id="IX8YXHl2S8Epsp9EXuZL-12" value="Contiene" style="shape=rhombus;perimeter=rhombusPerimeter;whiteSpace=wrap;html=1;align=center;rounded=0;sketch=0;strokeColor=#909090;fillColor=#F5AB50;fontColor=#1A1A1A;" parent="1" vertex="1">
          <mxGeometry x="280" y="480" width="80" height="40" as="geometry" />
        </mxCell>
        <mxCell id="IX8YXHl2S8Epsp9EXuZL-13" value="(1,1)" style="endArrow=none;html=1;rounded=0;strokeColor=#182E3E;fontColor=#1A1A1A;exitX=0.5;exitY=1;exitDx=0;exitDy=0;labelBackgroundColor=#FFFFFF;" parent="1" source="2" target="IX8YXHl2S8Epsp9EXuZL-12" edge="1">
          <mxGeometry relative="1" as="geometry">
            <mxPoint x="300" y="460" as="sourcePoint" />
            <mxPoint x="460" y="460" as="targetPoint" />
          </mxGeometry>
        </mxCell>
        <mxCell id="IX8YXHl2S8Epsp9EXuZL-14" value="&lt;span style=&quot;&quot;&gt;(1,n)&lt;/span&gt;" style="endArrow=none;html=1;rounded=0;strokeColor=#182E3E;fontColor=#1A1A1A;exitX=0.5;exitY=1;exitDx=0;exitDy=0;entryX=0.5;entryY=0;entryDx=0;entryDy=0;verticalAlign=middle;fontStyle=0;labelBackgroundColor=#FFFFFF;" parent="1" source="IX8YXHl2S8Epsp9EXuZL-12" target="IX8YXHl2S8Epsp9EXuZL-3" edge="1">
          <mxGeometry relative="1" as="geometry">
            <mxPoint x="270" y="559.5" as="sourcePoint" />
            <mxPoint x="430" y="559.5" as="targetPoint" />
          </mxGeometry>
        </mxCell>
        <mxCell id="IX8YXHl2S8Epsp9EXuZL-16" value="Pasa por" style="shape=rhombus;perimeter=rhombusPerimeter;whiteSpace=wrap;html=1;align=center;rounded=0;sketch=0;strokeColor=#909090;fillColor=#F5AB50;fontColor=#1A1A1A;" parent="1" vertex="1">
          <mxGeometry x="480" y="620" width="80" height="40" as="geometry" />
        </mxCell>
        <mxCell id="IX8YXHl2S8Epsp9EXuZL-17" value="(1,n)" style="endArrow=none;html=1;rounded=0;labelBackgroundColor=#FFFFFF;strokeColor=#182E3E;fontColor=#1A1A1A;" parent="1" source="IX8YXHl2S8Epsp9EXuZL-3" target="IX8YXHl2S8Epsp9EXuZL-16" edge="1">
          <mxGeometry relative="1" as="geometry">
            <mxPoint x="360" y="639.5" as="sourcePoint" />
            <mxPoint x="520" y="650" as="targetPoint" />
          </mxGeometry>
        </mxCell>
        <mxCell id="IX8YXHl2S8Epsp9EXuZL-18" value="(1,n)" style="endArrow=none;html=1;rounded=0;labelBackgroundColor=#FFFFFF;strokeColor=#182E3E;fontColor=#1A1A1A;" parent="1" source="IX8YXHl2S8Epsp9EXuZL-16" target="IX8YXHl2S8Epsp9EXuZL-2" edge="1">
          <mxGeometry relative="1" as="geometry">
            <mxPoint x="530" y="639.5" as="sourcePoint" />
            <mxPoint x="690" y="639.5" as="targetPoint" />
          </mxGeometry>
        </mxCell>
        <mxCell id="IX8YXHl2S8Epsp9EXuZL-19" value="Nombre" style="ellipse;whiteSpace=wrap;html=1;align=center;rounded=0;sketch=0;strokeColor=#909090;fillColor=#F5AB50;fontColor=#1A1A1A;" parent="1" vertex="1">
          <mxGeometry x="210" y="240" width="100" height="40" as="geometry" />
        </mxCell>
        <mxCell id="IX8YXHl2S8Epsp9EXuZL-20" value="" style="endArrow=none;html=1;rounded=0;labelBackgroundColor=#FFFFFF;strokeColor=#182E3E;fontColor=#1A1A1A;" parent="1" source="IX8YXHl2S8Epsp9EXuZL-19" target="2" edge="1">
          <mxGeometry relative="1" as="geometry">
            <mxPoint x="360" y="250" as="sourcePoint" />
            <mxPoint x="520" y="250" as="targetPoint" />
          </mxGeometry>
        </mxCell>
        <mxCell id="IX8YXHl2S8Epsp9EXuZL-21" value="" style="endArrow=none;html=1;rounded=0;labelBackgroundColor=#FFFFFF;strokeColor=#182E3E;fontColor=#1A1A1A;" parent="1" source="IX8YXHl2S8Epsp9EXuZL-22" target="2" edge="1">
          <mxGeometry relative="1" as="geometry">
            <mxPoint x="180" y="320" as="sourcePoint" />
            <mxPoint x="320" y="359.5" as="targetPoint" />
          </mxGeometry>
        </mxCell>
        <mxCell id="IX8YXHl2S8Epsp9EXuZL-22" value="Nro Ruta" style="ellipse;whiteSpace=wrap;html=1;align=center;rounded=0;sketch=0;strokeColor=#909090;fillColor=#F5AB50;fontColor=#1A1A1A;" parent="1" vertex="1">
          <mxGeometry x="110" y="290" width="100" height="40" as="geometry" />
        </mxCell>
        <mxCell id="IX8YXHl2S8Epsp9EXuZL-25" value="Nombre" style="ellipse;whiteSpace=wrap;html=1;align=center;rounded=0;sketch=0;strokeColor=#909090;fillColor=#F5AB50;fontColor=#1A1A1A;" parent="1" vertex="1">
          <mxGeometry x="670" y="240" width="100" height="40" as="geometry" />
        </mxCell>
        <mxCell id="IX8YXHl2S8Epsp9EXuZL-27" value="" style="endArrow=none;html=1;rounded=0;labelBackgroundColor=#FFFFFF;strokeColor=#182E3E;fontColor=#1A1A1A;" parent="1" source="IX8YXHl2S8Epsp9EXuZL-5" target="IX8YXHl2S8Epsp9EXuZL-25" edge="1">
          <mxGeometry relative="1" as="geometry">
            <mxPoint x="360" y="250" as="sourcePoint" />
            <mxPoint x="520" y="250" as="targetPoint" />
          </mxGeometry>
        </mxCell>
        <mxCell id="IX8YXHl2S8Epsp9EXuZL-28" value="ID Categoria" style="ellipse;whiteSpace=wrap;html=1;align=center;rounded=0;sketch=0;strokeColor=#909090;fillColor=#F5AB50;fontColor=#1A1A1A;" parent="1" vertex="1">
          <mxGeometry x="800" y="300" width="100" height="40" as="geometry" />
        </mxCell>
        <mxCell id="IX8YXHl2S8Epsp9EXuZL-29" value="" style="endArrow=none;html=1;rounded=0;labelBackgroundColor=#FFFFFF;strokeColor=#182E3E;fontColor=#1A1A1A;" parent="1" source="IX8YXHl2S8Epsp9EXuZL-5" target="IX8YXHl2S8Epsp9EXuZL-28" edge="1">
          <mxGeometry relative="1" as="geometry">
            <mxPoint x="360" y="250" as="sourcePoint" />
            <mxPoint x="520" y="250" as="targetPoint" />
          </mxGeometry>
        </mxCell>
        <mxCell id="IX8YXHl2S8Epsp9EXuZL-31" value="ID Tramo" style="ellipse;whiteSpace=wrap;html=1;align=center;rounded=0;sketch=0;strokeColor=#909090;fillColor=#F5AB50;fontColor=#1A1A1A;" parent="1" vertex="1">
          <mxGeometry x="110" y="550" width="100" height="40" as="geometry" />
        </mxCell>
        <mxCell id="IX8YXHl2S8Epsp9EXuZL-32" value="" style="endArrow=none;html=1;rounded=0;labelBackgroundColor=#FFFFFF;strokeColor=#182E3E;fontColor=#1A1A1A;" parent="1" source="IX8YXHl2S8Epsp9EXuZL-31" target="IX8YXHl2S8Epsp9EXuZL-3" edge="1">
          <mxGeometry relative="1" as="geometry">
            <mxPoint x="90" y="620" as="sourcePoint" />
            <mxPoint x="250" y="620" as="targetPoint" />
          </mxGeometry>
        </mxCell>
        <mxCell id="IX8YXHl2S8Epsp9EXuZL-33" value="KM inicio" style="ellipse;whiteSpace=wrap;html=1;align=center;rounded=0;sketch=0;strokeColor=#909090;fillColor=#F5AB50;fontColor=#1A1A1A;" parent="1" vertex="1">
          <mxGeometry x="70" y="610" width="100" height="40" as="geometry" />
        </mxCell>
        <mxCell id="IX8YXHl2S8Epsp9EXuZL-34" value="KM fin" style="ellipse;whiteSpace=wrap;html=1;align=center;rounded=0;sketch=0;strokeColor=#909090;fillColor=#F5AB50;fontColor=#1A1A1A;" parent="1" vertex="1">
          <mxGeometry x="90" y="680" width="100" height="40" as="geometry" />
        </mxCell>
        <mxCell id="IX8YXHl2S8Epsp9EXuZL-35" value="" style="endArrow=none;html=1;rounded=0;labelBackgroundColor=#FFFFFF;strokeColor=#182E3E;fontColor=#1A1A1A;" parent="1" source="IX8YXHl2S8Epsp9EXuZL-33" target="IX8YXHl2S8Epsp9EXuZL-3" edge="1">
          <mxGeometry relative="1" as="geometry">
            <mxPoint x="150" y="639.5" as="sourcePoint" />
            <mxPoint x="310" y="639.5" as="targetPoint" />
          </mxGeometry>
        </mxCell>
        <mxCell id="IX8YXHl2S8Epsp9EXuZL-36" value="" style="endArrow=none;html=1;rounded=0;labelBackgroundColor=#FFFFFF;strokeColor=#182E3E;fontColor=#1A1A1A;" parent="1" source="IX8YXHl2S8Epsp9EXuZL-34" target="IX8YXHl2S8Epsp9EXuZL-3" edge="1">
          <mxGeometry relative="1" as="geometry">
            <mxPoint x="160" y="720" as="sourcePoint" />
            <mxPoint x="320" y="720" as="targetPoint" />
          </mxGeometry>
        </mxCell>
        <mxCell id="IX8YXHl2S8Epsp9EXuZL-37" value="Nombre" style="ellipse;whiteSpace=wrap;html=1;align=center;rounded=0;sketch=0;strokeColor=#909090;fillColor=#F5AB50;fontColor=#1A1A1A;" parent="1" vertex="1">
          <mxGeometry x="820" y="600" width="100" height="40" as="geometry" />
        </mxCell>
        <mxCell id="IX8YXHl2S8Epsp9EXuZL-38" value="Codigo Postal" style="ellipse;whiteSpace=wrap;html=1;align=center;rounded=0;sketch=0;strokeColor=#909090;fillColor=#F5AB50;fontColor=#1A1A1A;" parent="1" vertex="1">
          <mxGeometry x="730" y="550" width="100" height="40" as="geometry" />
        </mxCell>
        <mxCell id="IX8YXHl2S8Epsp9EXuZL-39" value="" style="endArrow=none;html=1;rounded=0;labelBackgroundColor=#FFFFFF;strokeColor=#182E3E;fontColor=#1A1A1A;" parent="1" source="IX8YXHl2S8Epsp9EXuZL-2" target="IX8YXHl2S8Epsp9EXuZL-38" edge="1">
          <mxGeometry relative="1" as="geometry">
            <mxPoint x="570" y="560" as="sourcePoint" />
            <mxPoint x="730" y="560" as="targetPoint" />
          </mxGeometry>
        </mxCell>
        <mxCell id="IX8YXHl2S8Epsp9EXuZL-40" value="" style="endArrow=none;html=1;rounded=0;labelBackgroundColor=#FFFFFF;strokeColor=#182E3E;fontColor=#1A1A1A;" parent="1" source="IX8YXHl2S8Epsp9EXuZL-2" target="IX8YXHl2S8Epsp9EXuZL-37" edge="1">
          <mxGeometry relative="1" as="geometry">
            <mxPoint x="590" y="450" as="sourcePoint" />
            <mxPoint x="750" y="450" as="targetPoint" />
          </mxGeometry>
        </mxCell>
      </root>
    </mxGraphModel>
  </diagram>
  <diagram id="9egq4E_kVO66efnsEkRy" name="Desafío 2 MER">
    <mxGraphModel dx="1092" dy="504" grid="1" gridSize="10" guides="1" tooltips="1" connect="1" arrows="1" fold="1" page="1" pageScale="1" pageWidth="1169" pageHeight="827" math="0" shadow="0">
      <root>
        <mxCell id="U6-TYbHayEXbGcxDhOe_-0" />
        <mxCell id="U6-TYbHayEXbGcxDhOe_-1" parent="U6-TYbHayEXbGcxDhOe_-0" />
        <mxCell id="U6-TYbHayEXbGcxDhOe_-5" value="Equipo" style="whiteSpace=wrap;html=1;align=center;fillColor=#09555B;strokeColor=#BAC8D3;fontColor=#EEEEEE;" parent="U6-TYbHayEXbGcxDhOe_-1" vertex="1">
          <mxGeometry x="310" y="620" width="90" height="40" as="geometry" />
        </mxCell>
        <mxCell id="U6-TYbHayEXbGcxDhOe_-10" value="Universidad" style="ellipse;whiteSpace=wrap;html=1;align=center;fillColor=#09555B;strokeColor=#BAC8D3;fontColor=#EEEEEE;" parent="U6-TYbHayEXbGcxDhOe_-1" vertex="1">
          <mxGeometry x="460" y="620" width="100" height="40" as="geometry" />
        </mxCell>
        <mxCell id="U6-TYbHayEXbGcxDhOe_-11" value="Denominación" style="ellipse;whiteSpace=wrap;html=1;align=center;fillColor=#09555B;strokeColor=#BAC8D3;fontColor=#EEEEEE;" parent="U6-TYbHayEXbGcxDhOe_-1" vertex="1">
          <mxGeometry x="170" y="620" width="100" height="40" as="geometry" />
        </mxCell>
        <mxCell id="U6-TYbHayEXbGcxDhOe_-19" value="Pais" style="whiteSpace=wrap;html=1;align=center;fillColor=#09555B;strokeColor=#BAC8D3;fontColor=#EEEEEE;" parent="U6-TYbHayEXbGcxDhOe_-1" vertex="1">
          <mxGeometry x="680" y="454" width="100" height="40" as="geometry" />
        </mxCell>
        <mxCell id="U6-TYbHayEXbGcxDhOe_-20" value="Código de&lt;br&gt;país" style="ellipse;whiteSpace=wrap;html=1;align=center;fillColor=#09555B;strokeColor=#BAC8D3;fontColor=#EEEEEE;" parent="U6-TYbHayEXbGcxDhOe_-1" vertex="1">
          <mxGeometry x="700" y="334" width="100" height="40" as="geometry" />
        </mxCell>
        <mxCell id="U6-TYbHayEXbGcxDhOe_-22" value="Habitantes" style="ellipse;whiteSpace=wrap;html=1;align=center;fillColor=#09555B;strokeColor=#BAC8D3;fontColor=#EEEEEE;" parent="U6-TYbHayEXbGcxDhOe_-1" vertex="1">
          <mxGeometry x="850" y="444" width="100" height="40" as="geometry" />
        </mxCell>
        <mxCell id="U6-TYbHayEXbGcxDhOe_-23" value="Nombre" style="ellipse;whiteSpace=wrap;html=1;align=center;fillColor=#09555B;strokeColor=#BAC8D3;fontColor=#EEEEEE;" parent="U6-TYbHayEXbGcxDhOe_-1" vertex="1">
          <mxGeometry x="780" y="384" width="100" height="40" as="geometry" />
        </mxCell>
        <mxCell id="U6-TYbHayEXbGcxDhOe_-26" value="Continente" style="ellipse;whiteSpace=wrap;html=1;align=center;fillColor=#09555B;strokeColor=#BAC8D3;fontColor=#EEEEEE;" parent="U6-TYbHayEXbGcxDhOe_-1" vertex="1">
          <mxGeometry x="800" y="524" width="100" height="40" as="geometry" />
        </mxCell>
        <mxCell id="U6-TYbHayEXbGcxDhOe_-30" value="Prioridad" style="ellipse;whiteSpace=wrap;html=1;align=center;fillColor=#09555B;strokeColor=#BAC8D3;fontColor=#EEEEEE;" parent="U6-TYbHayEXbGcxDhOe_-1" vertex="1">
          <mxGeometry x="150" y="359" width="100" height="40" as="geometry" />
        </mxCell>
        <mxCell id="U6-TYbHayEXbGcxDhOe_-31" value="Nombre" style="ellipse;whiteSpace=wrap;html=1;align=center;fillColor=#09555B;strokeColor=#BAC8D3;fontColor=#EEEEEE;" parent="U6-TYbHayEXbGcxDhOe_-1" vertex="1">
          <mxGeometry x="120" y="414" width="100" height="40" as="geometry" />
        </mxCell>
        <mxCell id="U6-TYbHayEXbGcxDhOe_-37" value="ID_Problema" style="ellipse;whiteSpace=wrap;html=1;align=center;fillColor=#09555B;strokeColor=#BAC8D3;fontColor=#EEEEEE;" parent="U6-TYbHayEXbGcxDhOe_-1" vertex="1">
          <mxGeometry x="100" y="470" width="100" height="40" as="geometry" />
        </mxCell>
        <mxCell id="U6-TYbHayEXbGcxDhOe_-40" value="ID_Problema" style="ellipse;whiteSpace=wrap;html=1;align=center;fillColor=#09555B;strokeColor=#BAC8D3;fontColor=#EEEEEE;" parent="U6-TYbHayEXbGcxDhOe_-1" vertex="1">
          <mxGeometry x="680" y="544" width="100" height="40" as="geometry" />
        </mxCell>
        <mxCell id="U6-TYbHayEXbGcxDhOe_-49" value="Investiga" style="shape=rhombus;perimeter=rhombusPerimeter;whiteSpace=wrap;html=1;align=center;fillColor=#09555B;strokeColor=#BAC8D3;fontColor=#EEEEEE;" parent="U6-TYbHayEXbGcxDhOe_-1" vertex="1">
          <mxGeometry x="305" y="540" width="100" height="50" as="geometry" />
        </mxCell>
        <mxCell id="U6-TYbHayEXbGcxDhOe_-12" value="ID_Equipo" style="ellipse;whiteSpace=wrap;html=1;align=center;fillColor=#09555B;strokeColor=#BAC8D3;fontColor=#EEEEEE;" parent="U6-TYbHayEXbGcxDhOe_-1" vertex="1">
          <mxGeometry x="305" y="680" width="100" height="40" as="geometry" />
        </mxCell>
        <mxCell id="PVofp_wTALIXigpENMlV-84" value="Problema de&lt;br&gt;Contaminación" style="whiteSpace=wrap;html=1;align=center;fillColor=#09555B;strokeColor=#BAC8D3;fontColor=#EEEEEE;" parent="U6-TYbHayEXbGcxDhOe_-1" vertex="1">
          <mxGeometry x="295" y="444" width="120" height="50" as="geometry" />
        </mxCell>
        <mxCell id="PVofp_wTALIXigpENMlV-86" value="Es identificado" style="shape=rhombus;perimeter=rhombusPerimeter;whiteSpace=wrap;html=1;align=center;shadow=0;glass=0;fillColor=#09555B;strokeColor=#BAC8D3;fontColor=#EEEEEE;" parent="U6-TYbHayEXbGcxDhOe_-1" vertex="1">
          <mxGeometry x="500" y="444" width="120" height="60" as="geometry" />
        </mxCell>
        <mxCell id="PVofp_wTALIXigpENMlV-90" value="ID_Equipo" style="ellipse;whiteSpace=wrap;html=1;align=center;shadow=0;glass=0;fillColor=#09555B;strokeColor=#BAC8D3;fontColor=#EEEEEE;" parent="U6-TYbHayEXbGcxDhOe_-1" vertex="1">
          <mxGeometry x="160" y="520" width="100" height="40" as="geometry" />
        </mxCell>
        <mxCell id="Wv4BOUI5mAWMsbMh9gtW-0" value="" style="endArrow=none;html=1;rounded=0;strokeColor=#0B4D6A;" parent="U6-TYbHayEXbGcxDhOe_-1" source="U6-TYbHayEXbGcxDhOe_-30" target="PVofp_wTALIXigpENMlV-84" edge="1">
          <mxGeometry relative="1" as="geometry">
            <mxPoint x="240" y="380" as="sourcePoint" />
            <mxPoint x="400" y="380" as="targetPoint" />
          </mxGeometry>
        </mxCell>
        <mxCell id="Wv4BOUI5mAWMsbMh9gtW-6" value="&lt;font&gt;(3,10)&lt;/font&gt;" style="endArrow=none;html=1;rounded=0;strokeColor=#0B4D6A;" parent="U6-TYbHayEXbGcxDhOe_-1" source="U6-TYbHayEXbGcxDhOe_-49" target="PVofp_wTALIXigpENMlV-84" edge="1">
          <mxGeometry relative="1" as="geometry">
            <mxPoint x="190" y="390" as="sourcePoint" />
            <mxPoint x="350" y="350" as="targetPoint" />
          </mxGeometry>
        </mxCell>
        <mxCell id="Wv4BOUI5mAWMsbMh9gtW-7" value="" style="endArrow=none;html=1;rounded=0;strokeColor=#0B4D6A;" parent="U6-TYbHayEXbGcxDhOe_-1" source="U6-TYbHayEXbGcxDhOe_-31" target="PVofp_wTALIXigpENMlV-84" edge="1">
          <mxGeometry relative="1" as="geometry">
            <mxPoint x="240" y="480" as="sourcePoint" />
            <mxPoint x="400" y="470" as="targetPoint" />
          </mxGeometry>
        </mxCell>
        <mxCell id="Wv4BOUI5mAWMsbMh9gtW-9" value="" style="endArrow=none;html=1;rounded=0;strokeColor=#0B4D6A;" parent="U6-TYbHayEXbGcxDhOe_-1" source="PVofp_wTALIXigpENMlV-90" target="PVofp_wTALIXigpENMlV-84" edge="1">
          <mxGeometry relative="1" as="geometry">
            <mxPoint x="240" y="480" as="sourcePoint" />
            <mxPoint x="400" y="480" as="targetPoint" />
          </mxGeometry>
        </mxCell>
        <mxCell id="Wv4BOUI5mAWMsbMh9gtW-11" value="" style="endArrow=none;html=1;rounded=0;strokeColor=#0B4D6A;" parent="U6-TYbHayEXbGcxDhOe_-1" source="U6-TYbHayEXbGcxDhOe_-37" target="PVofp_wTALIXigpENMlV-84" edge="1">
          <mxGeometry relative="1" as="geometry">
            <mxPoint x="150" y="384" as="sourcePoint" />
            <mxPoint x="310" y="384" as="targetPoint" />
            <Array as="points" />
          </mxGeometry>
        </mxCell>
        <mxCell id="Wv4BOUI5mAWMsbMh9gtW-12" value="(1,n)" style="endArrow=none;html=1;rounded=0;strokeColor=#0B4D6A;" parent="U6-TYbHayEXbGcxDhOe_-1" source="PVofp_wTALIXigpENMlV-84" target="PVofp_wTALIXigpENMlV-86" edge="1">
          <mxGeometry relative="1" as="geometry">
            <mxPoint x="240" y="380" as="sourcePoint" />
            <mxPoint x="482.2222222222222" y="430.1111111111111" as="targetPoint" />
          </mxGeometry>
        </mxCell>
        <mxCell id="Wv4BOUI5mAWMsbMh9gtW-15" value="(1,1)" style="endArrow=none;html=1;rounded=0;strokeColor=#0B4D6A;" parent="U6-TYbHayEXbGcxDhOe_-1" source="U6-TYbHayEXbGcxDhOe_-49" target="U6-TYbHayEXbGcxDhOe_-5" edge="1">
          <mxGeometry relative="1" as="geometry">
            <mxPoint x="370" y="190" as="sourcePoint" />
            <mxPoint x="390" y="204" as="targetPoint" />
          </mxGeometry>
        </mxCell>
        <mxCell id="Wv4BOUI5mAWMsbMh9gtW-16" value="" style="endArrow=none;html=1;rounded=0;strokeColor=#0B4D6A;" parent="U6-TYbHayEXbGcxDhOe_-1" source="U6-TYbHayEXbGcxDhOe_-19" target="U6-TYbHayEXbGcxDhOe_-26" edge="1">
          <mxGeometry relative="1" as="geometry">
            <mxPoint x="800" y="263" as="sourcePoint" />
            <mxPoint x="960" y="263" as="targetPoint" />
          </mxGeometry>
        </mxCell>
        <mxCell id="Wv4BOUI5mAWMsbMh9gtW-17" value="" style="endArrow=none;html=1;rounded=0;strokeColor=#0B4D6A;" parent="U6-TYbHayEXbGcxDhOe_-1" source="U6-TYbHayEXbGcxDhOe_-40" target="U6-TYbHayEXbGcxDhOe_-19" edge="1">
          <mxGeometry relative="1" as="geometry">
            <mxPoint x="620" y="134" as="sourcePoint" />
            <mxPoint x="780" y="134" as="targetPoint" />
            <Array as="points" />
          </mxGeometry>
        </mxCell>
        <mxCell id="Wv4BOUI5mAWMsbMh9gtW-18" value="" style="endArrow=none;html=1;rounded=0;strokeColor=#0B4D6A;" parent="U6-TYbHayEXbGcxDhOe_-1" source="U6-TYbHayEXbGcxDhOe_-19" target="U6-TYbHayEXbGcxDhOe_-22" edge="1">
          <mxGeometry relative="1" as="geometry">
            <mxPoint x="810" y="124" as="sourcePoint" />
            <mxPoint x="957" y="84" as="targetPoint" />
          </mxGeometry>
        </mxCell>
        <mxCell id="Wv4BOUI5mAWMsbMh9gtW-19" value="" style="endArrow=none;html=1;rounded=0;strokeColor=#0B4D6A;" parent="U6-TYbHayEXbGcxDhOe_-1" source="U6-TYbHayEXbGcxDhOe_-23" target="U6-TYbHayEXbGcxDhOe_-19" edge="1">
          <mxGeometry relative="1" as="geometry">
            <mxPoint x="620" y="134" as="sourcePoint" />
            <mxPoint x="780" y="134" as="targetPoint" />
          </mxGeometry>
        </mxCell>
        <mxCell id="Wv4BOUI5mAWMsbMh9gtW-20" value="" style="endArrow=none;html=1;rounded=0;strokeColor=#0B4D6A;" parent="U6-TYbHayEXbGcxDhOe_-1" source="U6-TYbHayEXbGcxDhOe_-19" target="U6-TYbHayEXbGcxDhOe_-20" edge="1">
          <mxGeometry relative="1" as="geometry">
            <mxPoint x="650" y="74" as="sourcePoint" />
            <mxPoint x="810" y="74" as="targetPoint" />
          </mxGeometry>
        </mxCell>
        <mxCell id="Wv4BOUI5mAWMsbMh9gtW-26" value="" style="endArrow=none;html=1;rounded=0;strokeColor=#0B4D6A;" parent="U6-TYbHayEXbGcxDhOe_-1" source="U6-TYbHayEXbGcxDhOe_-11" target="U6-TYbHayEXbGcxDhOe_-5" edge="1">
          <mxGeometry relative="1" as="geometry">
            <mxPoint x="140" y="183.5" as="sourcePoint" />
            <mxPoint x="300" y="183.5" as="targetPoint" />
          </mxGeometry>
        </mxCell>
        <mxCell id="Wv4BOUI5mAWMsbMh9gtW-27" value="" style="endArrow=none;html=1;rounded=0;strokeColor=#0B4D6A;" parent="U6-TYbHayEXbGcxDhOe_-1" source="U6-TYbHayEXbGcxDhOe_-12" target="U6-TYbHayEXbGcxDhOe_-5" edge="1">
          <mxGeometry relative="1" as="geometry">
            <mxPoint x="160" y="133.5" as="sourcePoint" />
            <mxPoint x="320" y="133.5" as="targetPoint" />
          </mxGeometry>
        </mxCell>
        <mxCell id="Wv4BOUI5mAWMsbMh9gtW-28" value="" style="endArrow=none;html=1;rounded=0;strokeColor=#0B4D6A;" parent="U6-TYbHayEXbGcxDhOe_-1" source="U6-TYbHayEXbGcxDhOe_-10" target="U6-TYbHayEXbGcxDhOe_-5" edge="1">
          <mxGeometry relative="1" as="geometry">
            <mxPoint x="260" y="90" as="sourcePoint" />
            <mxPoint x="420" y="90" as="targetPoint" />
          </mxGeometry>
        </mxCell>
        <mxCell id="MtQWOh4sAqFuOfOY9ijm-0" value="(1,n)" style="endArrow=none;html=1;rounded=0;strokeColor=#0B4D6A;" edge="1" parent="U6-TYbHayEXbGcxDhOe_-1" source="PVofp_wTALIXigpENMlV-86" target="U6-TYbHayEXbGcxDhOe_-19">
          <mxGeometry relative="1" as="geometry">
            <mxPoint x="425" y="480.4634146341464" as="sourcePoint" />
            <mxPoint x="512.7906976744187" y="482.6046511627907" as="targetPoint" />
          </mxGeometry>
        </mxCell>
        <mxCell id="3Idzt2YKG3kEslBqzMZ0-0" value="Capa sin título" parent="U6-TYbHayEXbGcxDhOe_-0" />
      </root>
    </mxGraphModel>
  </diagram>
  <diagram id="8hiExE6TpvQHNCsjd06g" name="Desafio 3 MER">
    <mxGraphModel dx="1092" dy="1354" grid="1" gridSize="10" guides="1" tooltips="1" connect="1" arrows="1" fold="1" page="1" pageScale="1" pageWidth="1100" pageHeight="850" math="0" shadow="0">
      <root>
        <mxCell id="LgY6FWjEmXhXFbmSiPaE-0" />
        <mxCell id="LgY6FWjEmXhXFbmSiPaE-1" parent="LgY6FWjEmXhXFbmSiPaE-0" />
        <mxCell id="27455JD2ZS9khoenOfAL-4" value="&lt;p dir=&quot;ltr&quot; class=&quot;CDt4Ke zfr3Q&quot; style=&quot;box-sizing: border-box ; margin: 0px ; outline: none ; position: relative ; font-size: 11pt ; font-family: &amp;#34;lato&amp;#34; , sans-serif ; line-height: 1.6667 ; padding-top: 0px&quot;&gt;&lt;span style=&quot;box-sizing: border-box ; font-family: &amp;#34;lato&amp;#34;&quot;&gt;&lt;span style=&quot;font-weight: 700 ; box-sizing: border-box&quot;&gt;DESAFÍO 3&lt;/span&gt;&lt;/span&gt;&lt;/p&gt;&lt;p dir=&quot;ltr&quot; class=&quot;CDt4Ke zfr3Q&quot; style=&quot;box-sizing: border-box ; margin: 12px 0px 0px ; outline: none ; position: relative ; font-size: 11pt ; font-family: &amp;#34;lato&amp;#34; , sans-serif ; line-height: 1.6667 ; padding-left: 0px&quot;&gt;Relacionado a lo anterior, algunos países deben montar Laboratorios especiales para el abordaje de las problemáticas.&lt;/p&gt;&lt;p dir=&quot;ltr&quot; class=&quot;CDt4Ke zfr3Q&quot; style=&quot;box-sizing: border-box ; margin: 12px 0px 0px ; outline: none ; position: relative ; font-size: 11pt ; font-family: &amp;#34;lato&amp;#34; , sans-serif ; line-height: 1.6667 ; padding-left: 0px&quot;&gt;&lt;span style=&quot;box-sizing: border-box ; font-family: &amp;#34;lato&amp;#34; ; font-size: 11pt ; vertical-align: baseline&quot;&gt;Una empresa dedicada a la instalación de&amp;nbsp;&lt;/span&gt;Laboratorios de Investigación&lt;span style=&quot;box-sizing: border-box ; font-family: &amp;#34;lato&amp;#34; ; font-size: 11pt ; vertical-align: baseline&quot;&gt;&amp;nbsp;&lt;/span&gt;Tecnológicos&lt;span style=&quot;box-sizing: border-box ; font-family: &amp;#34;lato&amp;#34; ; font-size: 11pt ; vertical-align: baseline&quot;&gt;&amp;nbsp;quiere realizar una base de datos donde se reflejen las&amp;nbsp;&lt;/span&gt;instalaciones&lt;span style=&quot;box-sizing: border-box ; font-family: &amp;#34;lato&amp;#34; ; font-size: 11pt ; vertical-align: baseline&quot;&gt;, para lo cual se tiene en cuenta:&lt;/span&gt;&lt;/p&gt;&lt;ul class=&quot;n8H08c UVNKR&quot; style=&quot;list-style-type: square ; box-sizing: border-box ; padding: 0px ; margin: 6px 0px 0px ; font-family: sans-serif ; font-size: 16px&quot;&gt;&lt;li dir=&quot;ltr&quot; class=&quot;TYR86d zfr3Q&quot; style=&quot;box-sizing: border-box ; margin: 0px 0px 0px 15pt ; outline: none ; position: relative ; font-size: 11pt ; font-style: inherit ; text-decoration: inherit ; font-family: &amp;#34;lato&amp;#34; , sans-serif ; line-height: 1.6667 ; padding-top: 0px&quot;&gt;&lt;p dir=&quot;ltr&quot; class=&quot;CDt4Ke zfr3Q&quot; style=&quot;box-sizing: border-box ; margin: 0px ; outline: none ; position: relative ; font-size: 11pt ; font-style: inherit ; text-decoration: inherit ; line-height: 1.6667 ; padding-top: 0px ; padding-bottom: 0px ; padding-left: 0px&quot;&gt;&lt;span style=&quot;box-sizing: border-box ; font-family: &amp;#34;lato&amp;#34; ; font-size: 11pt ; vertical-align: baseline&quot;&gt;Cada modelo de &lt;/span&gt;Laboratorio&lt;span style=&quot;box-sizing: border-box ; font-family: &amp;#34;lato&amp;#34; ; font-size: 11pt ; vertical-align: baseline&quot;&gt; lo debe montar, al menos, &lt;/span&gt;2 grupos de instalación definidos por la empresa&lt;span style=&quot;box-sizing: border-box ; font-family: &amp;#34;lato&amp;#34; ; font-size: 11pt ; vertical-align: baseline&quot;&gt;.&lt;/span&gt;&lt;/p&gt;&lt;/li&gt;&lt;li dir=&quot;ltr&quot; class=&quot;TYR86d zfr3Q&quot; style=&quot;box-sizing: border-box ; margin: 6px 0px 0px 15pt ; outline: none ; position: relative ; font-size: 11pt ; font-style: inherit ; text-decoration: inherit ; font-family: &amp;#34;lato&amp;#34; , sans-serif ; line-height: 1.6667&quot;&gt;&lt;p dir=&quot;ltr&quot; class=&quot;CDt4Ke zfr3Q&quot; style=&quot;box-sizing: border-box ; margin: 0px ; outline: none ; position: relative ; font-size: 11pt ; font-style: inherit ; text-decoration: inherit ; line-height: 1.6667 ; padding-top: 0px ; padding-bottom: 0px ; padding-left: 0px&quot;&gt;&lt;span style=&quot;box-sizing: border-box ; font-family: &amp;#34;lato&amp;#34; ; font-size: 11pt ; vertical-align: baseline&quot;&gt;El mismo &lt;/span&gt;grupo&lt;span style=&quot;box-sizing: border-box ; font-family: &amp;#34;lato&amp;#34; ; font-size: 11pt ; vertical-align: baseline&quot;&gt; puede montar varios &lt;/span&gt;modelos&lt;span style=&quot;box-sizing: border-box ; font-family: &amp;#34;lato&amp;#34; ; font-size: 11pt ; vertical-align: baseline&quot;&gt; de &lt;/span&gt;Laboratorios&lt;span style=&quot;box-sizing: border-box ; font-family: &amp;#34;lato&amp;#34; ; font-size: 11pt ; vertical-align: baseline&quot;&gt;.&lt;/span&gt;&lt;/p&gt;&lt;/li&gt;&lt;li dir=&quot;ltr&quot; class=&quot;TYR86d zfr3Q&quot; style=&quot;box-sizing: border-box ; margin: 6px 0px 0px 15pt ; outline: none ; position: relative ; font-size: 11pt ; font-style: inherit ; text-decoration: inherit ; font-family: &amp;#34;lato&amp;#34; , sans-serif ; line-height: 1.6667&quot;&gt;&lt;p dir=&quot;ltr&quot; class=&quot;CDt4Ke zfr3Q&quot; style=&quot;box-sizing: border-box ; margin: 0px ; outline: none ; position: relative ; font-size: 11pt ; font-style: inherit ; text-decoration: inherit ; line-height: 1.6667 ; padding-top: 0px ; padding-bottom: 0px ; padding-left: 0px&quot;&gt;&lt;span style=&quot;box-sizing: border-box ; font-family: &amp;#34;lato&amp;#34; ; font-size: 11pt ; vertical-align: baseline&quot;&gt;De cada modelo &lt;/span&gt;de Laboratorio&lt;span style=&quot;box-sizing: border-box ; font-family: &amp;#34;lato&amp;#34; ; font-size: 11pt ; vertical-align: baseline&quot;&gt; nos interesa conocer su código de modelo, sus características y su tiempo &lt;/span&gt;de instalación&lt;span style=&quot;box-sizing: border-box ; font-family: &amp;#34;lato&amp;#34; ; font-size: 11pt ; vertical-align: baseline&quot;&gt;.&lt;/span&gt;&lt;/p&gt;&lt;/li&gt;&lt;li dir=&quot;ltr&quot; class=&quot;TYR86d zfr3Q&quot; style=&quot;box-sizing: border-box ; margin: 6px 0px 0px 15pt ; outline: none ; position: relative ; font-size: 11pt ; font-style: inherit ; text-decoration: inherit ; font-family: &amp;#34;lato&amp;#34; , sans-serif ; line-height: 1.6667&quot;&gt;&lt;p dir=&quot;ltr&quot; class=&quot;CDt4Ke zfr3Q&quot; style=&quot;box-sizing: border-box ; margin: 0px ; outline: none ; position: relative ; font-size: 11pt ; font-style: inherit ; text-decoration: inherit ; line-height: 1.6667 ; padding-top: 0px ; padding-bottom: 0px ; padding-left: 0px&quot;&gt;&lt;span style=&quot;box-sizing: border-box ; font-family: &amp;#34;lato&amp;#34; ; font-size: 11pt ; vertical-align: baseline&quot;&gt;El mismo &lt;/span&gt;grupo de instalación&lt;span style=&quot;box-sizing: border-box ; font-family: &amp;#34;lato&amp;#34; ; font-size: 11pt ; vertical-align: baseline&quot;&gt; puede montar el mismo modelo en diferentes fechas. Nos interesa conocer la fecha en la que realiza cada montaje.&lt;/span&gt;&lt;/p&gt;&lt;/li&gt;&lt;li dir=&quot;ltr&quot; class=&quot;TYR86d zfr3Q&quot; style=&quot;box-sizing: border-box ; margin: 6px 0px 0px 15pt ; outline: none ; position: relative ; font-size: 11pt ; font-style: inherit ; text-decoration: inherit ; font-family: &amp;#34;lato&amp;#34; , sans-serif ; line-height: 1.6667&quot;&gt;&lt;p dir=&quot;ltr&quot; class=&quot;CDt4Ke zfr3Q&quot; style=&quot;box-sizing: border-box ; margin: 0px ; outline: none ; position: relative ; font-size: 11pt ; font-style: inherit ; text-decoration: inherit ; line-height: 1.6667 ; padding-top: 0px ; padding-bottom: 0px ; padding-left: 0px&quot;&gt;&lt;span style=&quot;box-sizing: border-box ; font-family: &amp;#34;lato&amp;#34; ; font-size: 11pt ; vertical-align: baseline&quot;&gt;De un &lt;/span&gt;grupo de instalación&lt;span style=&quot;box-sizing: border-box ; font-family: &amp;#34;lato&amp;#34; ; font-size: 11pt ; vertical-align: baseline&quot;&gt; nos interesa su &lt;/span&gt;Código,&lt;span style=&quot;box-sizing: border-box ; font-family: &amp;#34;lato&amp;#34; ; font-size: 11pt ; vertical-align: baseline&quot;&gt; &lt;/span&gt;Cantidad de personas&lt;span style=&quot;box-sizing: border-box ; font-family: &amp;#34;lato&amp;#34; ; font-size: 11pt ; vertical-align: baseline&quot;&gt;, &lt;/span&gt;telefono de contacto&lt;span style=&quot;box-sizing: border-box ; font-family: &amp;#34;lato&amp;#34; ; font-size: 11pt ; vertical-align: baseline&quot;&gt; y el número de &lt;/span&gt;Laboratorios&lt;span style=&quot;box-sizing: border-box ; font-family: &amp;#34;lato&amp;#34; ; font-size: 11pt ; vertical-align: baseline&quot;&gt; que ha montado de cada modelo.&lt;/span&gt;&lt;/p&gt;&lt;/li&gt;&lt;li dir=&quot;ltr&quot; class=&quot;TYR86d zfr3Q&quot; style=&quot;box-sizing: border-box ; margin: 6px 0px 0px 15pt ; outline: none ; position: relative ; font-size: 11pt ; font-style: inherit ; text-decoration: inherit ; font-family: &amp;#34;lato&amp;#34; , sans-serif ; line-height: 1.6667 ; padding-bottom: 0px&quot;&gt;&lt;p dir=&quot;ltr&quot; class=&quot;CDt4Ke zfr3Q&quot; style=&quot;box-sizing: border-box ; margin: 0px ; outline: none ; position: relative ; font-size: 11pt ; font-style: inherit ; text-decoration: inherit ; line-height: 1.6667 ; padding-top: 0px ; padding-bottom: 0px ; padding-left: 0px&quot;&gt;&lt;span style=&quot;box-sizing: border-box ; font-family: &amp;#34;lato&amp;#34; ; font-size: 11pt ; vertical-align: baseline&quot;&gt;Cada modelo de &lt;/span&gt;Laboratorio&lt;span style=&quot;box-sizing: border-box ; font-family: &amp;#34;lato&amp;#34; ; font-size: 11pt ; vertical-align: baseline&quot;&gt; puede ser &lt;/span&gt;instalado&lt;span style=&quot;box-sizing: border-box ; font-family: &amp;#34;lato&amp;#34; ; font-size: 11pt ; vertical-align: baseline&quot;&gt; &lt;/span&gt;en uno o varios países&lt;span style=&quot;box-sizing: border-box ; font-family: &amp;#34;lato&amp;#34; ; font-size: 11pt ; vertical-align: baseline&quot;&gt; y el mismo &lt;/span&gt;país&lt;span style=&quot;box-sizing: border-box ; font-family: &amp;#34;lato&amp;#34; ; font-size: 11pt ; vertical-align: baseline&quot;&gt; podrá &lt;/span&gt;montar&lt;span style=&quot;box-sizing: border-box ; font-family: &amp;#34;lato&amp;#34; ; font-size: 11pt ; vertical-align: baseline&quot;&gt; uno o varios &lt;/span&gt;Laboratorios&lt;span style=&quot;box-sizing: border-box ; font-family: &amp;#34;lato&amp;#34; ; font-size: 11pt ; vertical-align: baseline&quot;&gt;. De un &lt;/span&gt;país&lt;span style=&quot;box-sizing: border-box ; font-family: &amp;#34;lato&amp;#34; ; font-size: 11pt ; vertical-align: baseline&quot;&gt; nos interesa su &lt;/span&gt;código&lt;span style=&quot;box-sizing: border-box ; font-family: &amp;#34;lato&amp;#34; ; font-size: 11pt ; vertical-align: baseline&quot;&gt;, nombre, &lt;/span&gt;y fecha deseada de instalación&lt;span style=&quot;box-sizing: border-box ; font-family: &amp;#34;lato&amp;#34; ; font-size: 11pt ; vertical-align: baseline&quot;&gt;.&lt;/span&gt;&lt;/p&gt;&lt;/li&gt;&lt;/ul&gt;" style="shape=note;size=20;whiteSpace=wrap;html=1;align=left;fillColor=#09555B;strokeColor=#BAC8D3;fontColor=#EEEEEE;" parent="LgY6FWjEmXhXFbmSiPaE-1" vertex="1">
          <mxGeometry x="20" y="-800" width="1100" height="360" as="geometry" />
        </mxCell>
        <mxCell id="27455JD2ZS9khoenOfAL-5" value="Modelo de Laboratorio" style="whiteSpace=wrap;html=1;align=center;fontColor=#EEEEEE;fillColor=#09555B;strokeColor=#BAC8D3;" parent="LgY6FWjEmXhXFbmSiPaE-1" vertex="1">
          <mxGeometry x="280" y="-130" width="100" height="40" as="geometry" />
        </mxCell>
        <mxCell id="27455JD2ZS9khoenOfAL-7" value="Grupo" style="whiteSpace=wrap;html=1;align=center;fontColor=#EEEEEE;fillColor=#09555B;strokeColor=#BAC8D3;" parent="LgY6FWjEmXhXFbmSiPaE-1" vertex="1">
          <mxGeometry x="280" y="-380" width="100" height="40" as="geometry" />
        </mxCell>
        <mxCell id="YYB36kc5XwLMMSQqF9Pd-1" value="Cod Modelo" style="ellipse;whiteSpace=wrap;html=1;align=center;fontStyle=4;rounded=0;sketch=0;strokeColor=#BAC8D3;fillColor=#09555B;fontColor=#EEEEEE;" parent="LgY6FWjEmXhXFbmSiPaE-1" vertex="1">
          <mxGeometry x="160" y="-180" width="100" height="40" as="geometry" />
        </mxCell>
        <mxCell id="YYB36kc5XwLMMSQqF9Pd-2" value="" style="endArrow=none;html=1;rounded=0;strokeColor=#FFFFFF;" parent="LgY6FWjEmXhXFbmSiPaE-1" source="YYB36kc5XwLMMSQqF9Pd-1" target="27455JD2ZS9khoenOfAL-5" edge="1">
          <mxGeometry relative="1" as="geometry">
            <mxPoint x="170" y="-235" as="sourcePoint" />
            <mxPoint x="330" y="-235" as="targetPoint" />
          </mxGeometry>
        </mxCell>
        <mxCell id="YYB36kc5XwLMMSQqF9Pd-3" value="" style="endArrow=none;html=1;rounded=0;strokeColor=#FFFFFF;" parent="LgY6FWjEmXhXFbmSiPaE-1" source="27455JD2ZS9khoenOfAL-5" target="YYB36kc5XwLMMSQqF9Pd-4" edge="1">
          <mxGeometry relative="1" as="geometry">
            <mxPoint x="330" y="-275.5" as="sourcePoint" />
            <mxPoint x="160" y="-235" as="targetPoint" />
          </mxGeometry>
        </mxCell>
        <mxCell id="YYB36kc5XwLMMSQqF9Pd-4" value="Características" style="ellipse;whiteSpace=wrap;html=1;align=center;rounded=0;sketch=0;strokeColor=#BAC8D3;fillColor=#09555B;fontColor=#EEEEEE;" parent="LgY6FWjEmXhXFbmSiPaE-1" vertex="1">
          <mxGeometry x="140" y="-130" width="100" height="40" as="geometry" />
        </mxCell>
        <mxCell id="YYB36kc5XwLMMSQqF9Pd-5" value="Tiempo de Instalación" style="ellipse;whiteSpace=wrap;html=1;align=center;rounded=0;sketch=0;strokeColor=#BAC8D3;fillColor=#09555B;fontColor=#EEEEEE;" parent="LgY6FWjEmXhXFbmSiPaE-1" vertex="1">
          <mxGeometry x="280" y="-70" width="100" height="40" as="geometry" />
        </mxCell>
        <mxCell id="YYB36kc5XwLMMSQqF9Pd-6" value="" style="endArrow=none;html=1;rounded=0;strokeColor=#FFFFFF;" parent="LgY6FWjEmXhXFbmSiPaE-1" source="YYB36kc5XwLMMSQqF9Pd-5" target="27455JD2ZS9khoenOfAL-5" edge="1">
          <mxGeometry relative="1" as="geometry">
            <mxPoint x="170" y="-195" as="sourcePoint" />
            <mxPoint x="320" y="-195" as="targetPoint" />
          </mxGeometry>
        </mxCell>
        <mxCell id="YYB36kc5XwLMMSQqF9Pd-7" value="Pais" style="whiteSpace=wrap;html=1;align=center;rounded=0;sketch=0;strokeColor=#BAC8D3;fillColor=#09555B;fontColor=#EEEEEE;" parent="LgY6FWjEmXhXFbmSiPaE-1" vertex="1">
          <mxGeometry x="630" y="-130" width="100" height="40" as="geometry" />
        </mxCell>
        <mxCell id="YYB36kc5XwLMMSQqF9Pd-9" value="Nombre" style="ellipse;whiteSpace=wrap;html=1;align=center;rounded=0;sketch=0;strokeColor=#BAC8D3;fillColor=#09555B;fontColor=#EEEEEE;" parent="LgY6FWjEmXhXFbmSiPaE-1" vertex="1">
          <mxGeometry x="690" y="-190" width="100" height="40" as="geometry" />
        </mxCell>
        <mxCell id="YYB36kc5XwLMMSQqF9Pd-10" value="Fecha deseada" style="ellipse;whiteSpace=wrap;html=1;align=center;rounded=0;sketch=0;strokeColor=#BAC8D3;fillColor=#09555B;fontColor=#EEEEEE;" parent="LgY6FWjEmXhXFbmSiPaE-1" vertex="1">
          <mxGeometry x="560" y="-70" width="100" height="40" as="geometry" />
        </mxCell>
        <mxCell id="YYB36kc5XwLMMSQqF9Pd-11" value="Código" style="ellipse;whiteSpace=wrap;html=1;align=center;fontStyle=4;rounded=0;sketch=0;strokeColor=#BAC8D3;fillColor=#09555B;fontColor=#EEEEEE;" parent="LgY6FWjEmXhXFbmSiPaE-1" vertex="1">
          <mxGeometry x="570" y="-190" width="100" height="40" as="geometry" />
        </mxCell>
        <mxCell id="YYB36kc5XwLMMSQqF9Pd-12" value="" style="endArrow=none;html=1;rounded=0;strokeColor=#FFFFFF;" parent="LgY6FWjEmXhXFbmSiPaE-1" source="YYB36kc5XwLMMSQqF9Pd-7" target="YYB36kc5XwLMMSQqF9Pd-9" edge="1">
          <mxGeometry relative="1" as="geometry">
            <mxPoint x="730" y="-205" as="sourcePoint" />
            <mxPoint x="890" y="-195" as="targetPoint" />
          </mxGeometry>
        </mxCell>
        <mxCell id="YYB36kc5XwLMMSQqF9Pd-13" value="" style="endArrow=none;html=1;rounded=0;strokeColor=#FFFFFF;" parent="LgY6FWjEmXhXFbmSiPaE-1" source="YYB36kc5XwLMMSQqF9Pd-7" target="YYB36kc5XwLMMSQqF9Pd-11" edge="1">
          <mxGeometry relative="1" as="geometry">
            <mxPoint x="710" y="-245" as="sourcePoint" />
            <mxPoint x="870" y="-245" as="targetPoint" />
          </mxGeometry>
        </mxCell>
        <mxCell id="YYB36kc5XwLMMSQqF9Pd-14" value="" style="endArrow=none;html=1;rounded=0;strokeColor=#FFFFFF;" parent="LgY6FWjEmXhXFbmSiPaE-1" source="YYB36kc5XwLMMSQqF9Pd-7" target="YYB36kc5XwLMMSQqF9Pd-10" edge="1">
          <mxGeometry relative="1" as="geometry">
            <mxPoint x="570" y="-125" as="sourcePoint" />
            <mxPoint x="730" y="-125" as="targetPoint" />
          </mxGeometry>
        </mxCell>
        <mxCell id="YYB36kc5XwLMMSQqF9Pd-16" value="Se instala" style="shape=rhombus;perimeter=rhombusPerimeter;whiteSpace=wrap;html=1;align=center;rounded=0;sketch=0;strokeColor=#BAC8D3;fillColor=#09555B;fontColor=#EEEEEE;" parent="LgY6FWjEmXhXFbmSiPaE-1" vertex="1">
          <mxGeometry x="450" y="-140" width="120" height="60" as="geometry" />
        </mxCell>
        <mxCell id="YYB36kc5XwLMMSQqF9Pd-18" value="(1,n)" style="endArrow=none;html=1;rounded=0;strokeColor=#FFFFFF;" parent="LgY6FWjEmXhXFbmSiPaE-1" source="27455JD2ZS9khoenOfAL-5" target="YYB36kc5XwLMMSQqF9Pd-16" edge="1">
          <mxGeometry relative="1" as="geometry">
            <mxPoint x="550" y="-155" as="sourcePoint" />
            <mxPoint x="710" y="-155" as="targetPoint" />
          </mxGeometry>
        </mxCell>
        <mxCell id="YYB36kc5XwLMMSQqF9Pd-19" value="(1,n)" style="endArrow=none;html=1;rounded=0;strokeColor=#FFFFFF;" parent="LgY6FWjEmXhXFbmSiPaE-1" source="YYB36kc5XwLMMSQqF9Pd-16" target="YYB36kc5XwLMMSQqF9Pd-7" edge="1">
          <mxGeometry relative="1" as="geometry">
            <mxPoint x="550" y="-155" as="sourcePoint" />
            <mxPoint x="710" y="-155" as="targetPoint" />
          </mxGeometry>
        </mxCell>
        <mxCell id="YYB36kc5XwLMMSQqF9Pd-20" value="Monta" style="shape=rhombus;perimeter=rhombusPerimeter;whiteSpace=wrap;html=1;align=center;rounded=0;sketch=0;strokeColor=#BAC8D3;fillColor=#09555B;fontColor=#EEEEEE;" parent="LgY6FWjEmXhXFbmSiPaE-1" vertex="1">
          <mxGeometry x="270" y="-245" width="120" height="60" as="geometry" />
        </mxCell>
        <mxCell id="YYB36kc5XwLMMSQqF9Pd-21" value="(2,n)" style="endArrow=none;html=1;rounded=0;strokeColor=#FFFFFF;" parent="LgY6FWjEmXhXFbmSiPaE-1" source="27455JD2ZS9khoenOfAL-7" target="YYB36kc5XwLMMSQqF9Pd-20" edge="1">
          <mxGeometry relative="1" as="geometry">
            <mxPoint x="550" y="-355" as="sourcePoint" />
            <mxPoint x="710" y="-355" as="targetPoint" />
          </mxGeometry>
        </mxCell>
        <mxCell id="YYB36kc5XwLMMSQqF9Pd-22" value="(1,n)" style="endArrow=none;html=1;rounded=0;strokeColor=#FFFFFF;" parent="LgY6FWjEmXhXFbmSiPaE-1" source="YYB36kc5XwLMMSQqF9Pd-20" target="27455JD2ZS9khoenOfAL-5" edge="1">
          <mxGeometry relative="1" as="geometry">
            <mxPoint x="550" y="-355" as="sourcePoint" />
            <mxPoint x="710" y="-355" as="targetPoint" />
          </mxGeometry>
        </mxCell>
        <mxCell id="YYB36kc5XwLMMSQqF9Pd-24" value="Codigo" style="ellipse;whiteSpace=wrap;html=1;align=center;fontStyle=4;rounded=0;sketch=0;strokeColor=#BAC8D3;fillColor=#09555B;fontColor=#EEEEEE;" parent="LgY6FWjEmXhXFbmSiPaE-1" vertex="1">
          <mxGeometry x="390" y="-330" width="100" height="40" as="geometry" />
        </mxCell>
        <mxCell id="YYB36kc5XwLMMSQqF9Pd-25" value="Cantidad de Lab Montados" style="ellipse;whiteSpace=wrap;html=1;align=center;rounded=0;sketch=0;strokeColor=#BAC8D3;fillColor=#09555B;fontColor=#EEEEEE;" parent="LgY6FWjEmXhXFbmSiPaE-1" vertex="1">
          <mxGeometry x="180" y="-330" width="100" height="40" as="geometry" />
        </mxCell>
        <mxCell id="YYB36kc5XwLMMSQqF9Pd-26" value="Cantidad de personas" style="ellipse;whiteSpace=wrap;html=1;align=center;rounded=0;sketch=0;strokeColor=#BAC8D3;fillColor=#09555B;fontColor=#EEEEEE;" parent="LgY6FWjEmXhXFbmSiPaE-1" vertex="1">
          <mxGeometry x="450" y="-380" width="100" height="40" as="geometry" />
        </mxCell>
        <mxCell id="YYB36kc5XwLMMSQqF9Pd-27" value="" style="endArrow=none;html=1;rounded=0;strokeColor=#FFFFFF;" parent="LgY6FWjEmXhXFbmSiPaE-1" source="YYB36kc5XwLMMSQqF9Pd-25" target="27455JD2ZS9khoenOfAL-7" edge="1">
          <mxGeometry relative="1" as="geometry">
            <mxPoint x="110" y="-240" as="sourcePoint" />
            <mxPoint x="270" y="-240" as="targetPoint" />
          </mxGeometry>
        </mxCell>
        <mxCell id="YYB36kc5XwLMMSQqF9Pd-28" value="" style="endArrow=none;html=1;rounded=0;strokeColor=#FFFFFF;" parent="LgY6FWjEmXhXFbmSiPaE-1" source="YYB36kc5XwLMMSQqF9Pd-32" target="27455JD2ZS9khoenOfAL-7" edge="1">
          <mxGeometry relative="1" as="geometry">
            <mxPoint x="189.27744453798778" y="-323.3878243119866" as="sourcePoint" />
            <mxPoint x="580" y="-330" as="targetPoint" />
          </mxGeometry>
        </mxCell>
        <mxCell id="YYB36kc5XwLMMSQqF9Pd-29" value="" style="endArrow=none;html=1;rounded=0;strokeColor=#FFFFFF;" parent="LgY6FWjEmXhXFbmSiPaE-1" source="YYB36kc5XwLMMSQqF9Pd-26" target="27455JD2ZS9khoenOfAL-7" edge="1">
          <mxGeometry relative="1" as="geometry">
            <mxPoint x="170" y="-380" as="sourcePoint" />
            <mxPoint x="330" y="-380" as="targetPoint" />
          </mxGeometry>
        </mxCell>
        <mxCell id="YYB36kc5XwLMMSQqF9Pd-31" value="" style="endArrow=none;html=1;rounded=0;strokeColor=#FFFFFF;" parent="LgY6FWjEmXhXFbmSiPaE-1" source="YYB36kc5XwLMMSQqF9Pd-24" target="27455JD2ZS9khoenOfAL-7" edge="1">
          <mxGeometry relative="1" as="geometry">
            <mxPoint x="260" y="-390" as="sourcePoint" />
            <mxPoint x="420" y="-390" as="targetPoint" />
          </mxGeometry>
        </mxCell>
        <mxCell id="YYB36kc5XwLMMSQqF9Pd-32" value="Telefono" style="ellipse;shape=doubleEllipse;margin=3;whiteSpace=wrap;html=1;align=center;rounded=0;sketch=0;strokeColor=#BAC8D3;fillColor=#09555B;fontColor=#EEEEEE;" parent="LgY6FWjEmXhXFbmSiPaE-1" vertex="1">
          <mxGeometry x="100" y="-380" width="100" height="40" as="geometry" />
        </mxCell>
        <mxCell id="YYB36kc5XwLMMSQqF9Pd-35" value="Fecha de montaje" style="ellipse;whiteSpace=wrap;html=1;align=center;rounded=0;sketch=0;strokeColor=#BAC8D3;fillColor=#09555B;fontColor=#EEEEEE;" parent="LgY6FWjEmXhXFbmSiPaE-1" vertex="1">
          <mxGeometry x="160" y="-80" width="100" height="40" as="geometry" />
        </mxCell>
        <mxCell id="YYB36kc5XwLMMSQqF9Pd-36" value="" style="endArrow=none;html=1;rounded=0;strokeColor=#FFFFFF;" parent="LgY6FWjEmXhXFbmSiPaE-1" source="YYB36kc5XwLMMSQqF9Pd-35" target="27455JD2ZS9khoenOfAL-5" edge="1">
          <mxGeometry relative="1" as="geometry">
            <mxPoint x="440" y="-40" as="sourcePoint" />
            <mxPoint x="600" y="-40" as="targetPoint" />
          </mxGeometry>
        </mxCell>
      </root>
    </mxGraphModel>
  </diagram>
  <diagram id="qKvSVJR-YeObrmrdDizb" name="Desafio 4 MER">
    <mxGraphModel dx="265" dy="1673" grid="1" gridSize="10" guides="1" tooltips="1" connect="1" arrows="1" fold="1" page="1" pageScale="1" pageWidth="827" pageHeight="1169" math="0" shadow="0">
      <root>
        <mxCell id="exVIgJ18aXQR2TJx0KCJ-0" />
        <mxCell id="exVIgJ18aXQR2TJx0KCJ-1" parent="exVIgJ18aXQR2TJx0KCJ-0" />
        <mxCell id="exVIgJ18aXQR2TJx0KCJ-3" value="Hospital" style="whiteSpace=wrap;html=1;align=center;rounded=0;sketch=0;strokeColor=#BAC8D3;fillColor=#09555B;fontSize=17;fontColor=#FFFFFF;" parent="exVIgJ18aXQR2TJx0KCJ-1" vertex="1">
          <mxGeometry x="1162.5" y="-709" width="100" height="40" as="geometry" />
        </mxCell>
        <mxCell id="exVIgJ18aXQR2TJx0KCJ-6" value="Sala" style="shape=ext;margin=3;double=1;whiteSpace=wrap;html=1;align=center;rounded=0;sketch=0;strokeColor=#BAC8D3;fillColor=#09555B;fontSize=17;fontColor=#FFFFFF;" parent="exVIgJ18aXQR2TJx0KCJ-1" vertex="1">
          <mxGeometry x="1162.5" y="-330" width="100" height="40" as="geometry" />
        </mxCell>
        <mxCell id="exVIgJ18aXQR2TJx0KCJ-7" value="Profesional" style="whiteSpace=wrap;html=1;align=center;rounded=0;sketch=0;strokeColor=#BAC8D3;fillColor=#09555B;fontSize=17;fontColor=#FFFFFF;" parent="exVIgJ18aXQR2TJx0KCJ-1" vertex="1">
          <mxGeometry x="1566" y="-709" width="100" height="40" as="geometry" />
        </mxCell>
        <mxCell id="exVIgJ18aXQR2TJx0KCJ-8" value="Laboratorio" style="whiteSpace=wrap;html=1;align=center;rounded=0;sketch=0;strokeColor=#BAC8D3;fillColor=#09555B;fontSize=17;fontColor=#FFFFFF;" parent="exVIgJ18aXQR2TJx0KCJ-1" vertex="1">
          <mxGeometry x="1162.5" y="-1060" width="100" height="40" as="geometry" />
        </mxCell>
        <mxCell id="exVIgJ18aXQR2TJx0KCJ-9" value="Paciente" style="whiteSpace=wrap;html=1;align=center;rounded=0;sketch=0;strokeColor=#BAC8D3;fillColor=#09555B;fontSize=17;fontColor=#FFFFFF;" parent="exVIgJ18aXQR2TJx0KCJ-1" vertex="1">
          <mxGeometry x="1566" y="-330" width="100" height="40" as="geometry" />
        </mxCell>
        <mxCell id="exVIgJ18aXQR2TJx0KCJ-10" value="Diagnóstico" style="whiteSpace=wrap;html=1;align=center;rounded=0;sketch=0;strokeColor=#BAC8D3;fillColor=#09555B;fontSize=17;fontColor=#FFFFFF;" parent="exVIgJ18aXQR2TJx0KCJ-1" vertex="1">
          <mxGeometry x="1998" y="-330" width="100" height="40" as="geometry" />
        </mxCell>
        <mxCell id="exVIgJ18aXQR2TJx0KCJ-11" value="Nombre" style="ellipse;whiteSpace=wrap;html=1;align=center;rounded=0;sketch=0;strokeColor=#BAC8D3;fillColor=#09555B;fontSize=17;fontColor=#FFFFFF;" parent="exVIgJ18aXQR2TJx0KCJ-1" vertex="1">
          <mxGeometry x="960" y="-697" width="100" height="40" as="geometry" />
        </mxCell>
        <mxCell id="exVIgJ18aXQR2TJx0KCJ-12" value="Cod hospital" style="ellipse;whiteSpace=wrap;html=1;align=center;fontStyle=4;rounded=0;sketch=0;strokeColor=#BAC8D3;fillColor=#09555B;fontSize=14;fontColor=#FFFFFF;" parent="exVIgJ18aXQR2TJx0KCJ-1" vertex="1">
          <mxGeometry x="908" y="-649" width="100" height="40" as="geometry" />
        </mxCell>
        <mxCell id="exVIgJ18aXQR2TJx0KCJ-13" value="Dirección" style="ellipse;whiteSpace=wrap;html=1;align=center;rounded=0;sketch=0;strokeColor=#BAC8D3;fillColor=#09555B;fontSize=17;fontColor=#FFFFFF;" parent="exVIgJ18aXQR2TJx0KCJ-1" vertex="1">
          <mxGeometry x="948" y="-757" width="100" height="40" as="geometry" />
        </mxCell>
        <mxCell id="exVIgJ18aXQR2TJx0KCJ-14" value="" style="endArrow=none;html=1;rounded=0;fontSize=17;fontColor=#FFFFFF;strokeColor=#FFFFFF;" parent="exVIgJ18aXQR2TJx0KCJ-1" source="exVIgJ18aXQR2TJx0KCJ-12" target="exVIgJ18aXQR2TJx0KCJ-3" edge="1">
          <mxGeometry relative="1" as="geometry">
            <mxPoint x="366" y="-670" as="sourcePoint" />
            <mxPoint x="526" y="-670" as="targetPoint" />
          </mxGeometry>
        </mxCell>
        <mxCell id="exVIgJ18aXQR2TJx0KCJ-15" value="Nombre" style="ellipse;whiteSpace=wrap;html=1;align=center;rounded=0;sketch=0;strokeColor=#BAC8D3;fillColor=#09555B;fontSize=17;fontColor=#FFFFFF;" parent="exVIgJ18aXQR2TJx0KCJ-1" vertex="1">
          <mxGeometry x="1068" y="-370" width="100" height="40" as="geometry" />
        </mxCell>
        <mxCell id="exVIgJ18aXQR2TJx0KCJ-16" value="Nombre" style="ellipse;whiteSpace=wrap;html=1;align=center;rounded=0;sketch=0;strokeColor=#BAC8D3;fillColor=#09555B;fontSize=17;fontColor=#FFFFFF;" parent="exVIgJ18aXQR2TJx0KCJ-1" vertex="1">
          <mxGeometry x="1637" y="-757" width="100" height="40" as="geometry" />
        </mxCell>
        <mxCell id="exVIgJ18aXQR2TJx0KCJ-17" value="Nombre" style="ellipse;whiteSpace=wrap;html=1;align=center;rounded=0;sketch=0;strokeColor=#BAC8D3;fillColor=#09555B;fontSize=17;fontColor=#FFFFFF;" parent="exVIgJ18aXQR2TJx0KCJ-1" vertex="1">
          <mxGeometry x="1476" y="-390" width="100" height="40" as="geometry" />
        </mxCell>
        <mxCell id="exVIgJ18aXQR2TJx0KCJ-18" value="Nombre" style="ellipse;whiteSpace=wrap;html=1;align=center;rounded=0;sketch=0;strokeColor=#BAC8D3;fillColor=#09555B;fontSize=17;fontColor=#FFFFFF;" parent="exVIgJ18aXQR2TJx0KCJ-1" vertex="1">
          <mxGeometry x="1018" y="-1060" width="100" height="40" as="geometry" />
        </mxCell>
        <mxCell id="exVIgJ18aXQR2TJx0KCJ-21" value="" style="endArrow=none;html=1;rounded=0;strokeColor=#FFFFFF;fontSize=14;fontColor=#FFFFFF;" parent="exVIgJ18aXQR2TJx0KCJ-1" source="exVIgJ18aXQR2TJx0KCJ-3" target="exVIgJ18aXQR2TJx0KCJ-13" edge="1">
          <mxGeometry relative="1" as="geometry">
            <mxPoint x="486" y="-550" as="sourcePoint" />
            <mxPoint x="646" y="-550" as="targetPoint" />
          </mxGeometry>
        </mxCell>
        <mxCell id="exVIgJ18aXQR2TJx0KCJ-22" value="" style="endArrow=none;html=1;rounded=0;strokeColor=#FFFFFF;fontSize=14;fontColor=#FFFFFF;" parent="exVIgJ18aXQR2TJx0KCJ-1" source="exVIgJ18aXQR2TJx0KCJ-3" target="exVIgJ18aXQR2TJx0KCJ-11" edge="1">
          <mxGeometry relative="1" as="geometry">
            <mxPoint x="306" y="-530" as="sourcePoint" />
            <mxPoint x="466" y="-530" as="targetPoint" />
          </mxGeometry>
        </mxCell>
        <mxCell id="exVIgJ18aXQR2TJx0KCJ-23" value="Camas" style="ellipse;whiteSpace=wrap;html=1;align=center;rounded=0;sketch=0;strokeColor=#BAC8D3;fillColor=#09555B;fontSize=17;fontColor=#FFFFFF;" parent="exVIgJ18aXQR2TJx0KCJ-1" vertex="1">
          <mxGeometry x="1018" y="-640" width="100" height="40" as="geometry" />
        </mxCell>
        <mxCell id="exVIgJ18aXQR2TJx0KCJ-24" value="" style="endArrow=none;html=1;rounded=0;strokeColor=#FFFFFF;fontSize=14;fontColor=#FFFFFF;" parent="exVIgJ18aXQR2TJx0KCJ-1" source="exVIgJ18aXQR2TJx0KCJ-23" target="exVIgJ18aXQR2TJx0KCJ-3" edge="1">
          <mxGeometry relative="1" as="geometry">
            <mxPoint x="1076" y="-540" as="sourcePoint" />
            <mxPoint x="1236" y="-540" as="targetPoint" />
          </mxGeometry>
        </mxCell>
        <mxCell id="exVIgJ18aXQR2TJx0KCJ-25" value="Teléfono" style="ellipse;shape=doubleEllipse;margin=3;whiteSpace=wrap;html=1;align=center;rounded=0;sketch=0;strokeColor=#BAC8D3;fillColor=#09555B;fontSize=14;fontColor=#FFFFFF;" parent="exVIgJ18aXQR2TJx0KCJ-1" vertex="1">
          <mxGeometry x="860" y="-729" width="100" height="40" as="geometry" />
        </mxCell>
        <mxCell id="exVIgJ18aXQR2TJx0KCJ-26" value="" style="endArrow=none;html=1;rounded=0;strokeColor=#FFFFFF;fontSize=14;fontColor=#FFFFFF;" parent="exVIgJ18aXQR2TJx0KCJ-1" source="exVIgJ18aXQR2TJx0KCJ-3" target="exVIgJ18aXQR2TJx0KCJ-25" edge="1">
          <mxGeometry relative="1" as="geometry">
            <mxPoint x="1106" y="-540" as="sourcePoint" />
            <mxPoint x="1266" y="-540" as="targetPoint" />
          </mxGeometry>
        </mxCell>
        <mxCell id="exVIgJ18aXQR2TJx0KCJ-27" value="Calle" style="ellipse;whiteSpace=wrap;html=1;align=center;rounded=0;sketch=0;strokeColor=#BAC8D3;fillColor=#09555B;fontSize=14;fontColor=#FFFFFF;" parent="exVIgJ18aXQR2TJx0KCJ-1" vertex="1">
          <mxGeometry x="898" y="-797" width="100" height="40" as="geometry" />
        </mxCell>
        <mxCell id="exVIgJ18aXQR2TJx0KCJ-28" value="Altura" style="ellipse;whiteSpace=wrap;html=1;align=center;rounded=0;sketch=0;strokeColor=#BAC8D3;fillColor=#09555B;fontSize=14;fontColor=#FFFFFF;" parent="exVIgJ18aXQR2TJx0KCJ-1" vertex="1">
          <mxGeometry x="1078" y="-760" width="100" height="40" as="geometry" />
        </mxCell>
        <mxCell id="exVIgJ18aXQR2TJx0KCJ-29" value="Piso" style="ellipse;whiteSpace=wrap;html=1;align=center;rounded=0;sketch=0;strokeColor=#BAC8D3;fillColor=#09555B;fontSize=14;fontColor=#FFFFFF;" parent="exVIgJ18aXQR2TJx0KCJ-1" vertex="1">
          <mxGeometry x="1008" y="-797" width="100" height="40" as="geometry" />
        </mxCell>
        <mxCell id="exVIgJ18aXQR2TJx0KCJ-31" value="" style="endArrow=none;html=1;rounded=0;strokeColor=#FFFFFF;fontSize=14;fontColor=#FFFFFF;" parent="exVIgJ18aXQR2TJx0KCJ-1" source="exVIgJ18aXQR2TJx0KCJ-13" target="exVIgJ18aXQR2TJx0KCJ-27" edge="1">
          <mxGeometry relative="1" as="geometry">
            <mxPoint x="728" y="-596" as="sourcePoint" />
            <mxPoint x="888" y="-596" as="targetPoint" />
          </mxGeometry>
        </mxCell>
        <mxCell id="exVIgJ18aXQR2TJx0KCJ-32" value="" style="endArrow=none;html=1;rounded=0;strokeColor=#FFFFFF;fontSize=14;fontColor=#FFFFFF;" parent="exVIgJ18aXQR2TJx0KCJ-1" source="exVIgJ18aXQR2TJx0KCJ-13" target="exVIgJ18aXQR2TJx0KCJ-28" edge="1">
          <mxGeometry relative="1" as="geometry">
            <mxPoint x="728" y="-596" as="sourcePoint" />
            <mxPoint x="1058" y="-737" as="targetPoint" />
          </mxGeometry>
        </mxCell>
        <mxCell id="exVIgJ18aXQR2TJx0KCJ-33" value="" style="endArrow=none;html=1;rounded=0;strokeColor=#FFFFFF;fontSize=14;fontColor=#FFFFFF;" parent="exVIgJ18aXQR2TJx0KCJ-1" source="exVIgJ18aXQR2TJx0KCJ-13" target="exVIgJ18aXQR2TJx0KCJ-29" edge="1">
          <mxGeometry relative="1" as="geometry">
            <mxPoint x="1058" y="-636" as="sourcePoint" />
            <mxPoint x="1218" y="-636" as="targetPoint" />
          </mxGeometry>
        </mxCell>
        <mxCell id="exVIgJ18aXQR2TJx0KCJ-35" value="" style="endArrow=none;html=1;rounded=0;strokeColor=#FFFFFF;fontSize=14;fontColor=#FFFFFF;" parent="exVIgJ18aXQR2TJx0KCJ-1" source="exVIgJ18aXQR2TJx0KCJ-15" target="exVIgJ18aXQR2TJx0KCJ-6" edge="1">
          <mxGeometry relative="1" as="geometry">
            <mxPoint x="1068" y="-240" as="sourcePoint" />
            <mxPoint x="1228" y="-240" as="targetPoint" />
          </mxGeometry>
        </mxCell>
        <mxCell id="exVIgJ18aXQR2TJx0KCJ-36" value="Cod Sala" style="ellipse;whiteSpace=wrap;html=1;align=center;fontStyle=4;rounded=0;sketch=0;strokeColor=#BAC8D3;fillColor=#09555B;fontSize=14;fontColor=#FFFFFF;" parent="exVIgJ18aXQR2TJx0KCJ-1" vertex="1">
          <mxGeometry x="1068" y="-290" width="100" height="40" as="geometry" />
        </mxCell>
        <mxCell id="exVIgJ18aXQR2TJx0KCJ-37" value="" style="endArrow=none;html=1;rounded=0;strokeColor=#FFFFFF;fontSize=14;fontColor=#FFFFFF;" parent="exVIgJ18aXQR2TJx0KCJ-1" source="exVIgJ18aXQR2TJx0KCJ-6" target="exVIgJ18aXQR2TJx0KCJ-36" edge="1">
          <mxGeometry relative="1" as="geometry">
            <mxPoint x="1238" y="-220" as="sourcePoint" />
            <mxPoint x="1398" y="-220" as="targetPoint" />
          </mxGeometry>
        </mxCell>
        <mxCell id="exVIgJ18aXQR2TJx0KCJ-38" value="Camas" style="ellipse;whiteSpace=wrap;html=1;align=center;rounded=0;sketch=0;strokeColor=#BAC8D3;fillColor=#09555B;fontSize=17;fontColor=#FFFFFF;" parent="exVIgJ18aXQR2TJx0KCJ-1" vertex="1">
          <mxGeometry x="1018" y="-330" width="100" height="40" as="geometry" />
        </mxCell>
        <mxCell id="exVIgJ18aXQR2TJx0KCJ-39" value="" style="endArrow=none;html=1;rounded=0;strokeColor=#FFFFFF;fontSize=14;fontColor=#FFFFFF;" parent="exVIgJ18aXQR2TJx0KCJ-1" source="exVIgJ18aXQR2TJx0KCJ-38" target="exVIgJ18aXQR2TJx0KCJ-6" edge="1">
          <mxGeometry relative="1" as="geometry">
            <mxPoint x="1118" y="-310" as="sourcePoint" />
            <mxPoint x="1338" y="-210" as="targetPoint" />
          </mxGeometry>
        </mxCell>
        <mxCell id="exVIgJ18aXQR2TJx0KCJ-41" value="Cod Matricula" style="ellipse;whiteSpace=wrap;html=1;align=center;fontStyle=4;rounded=0;sketch=0;strokeColor=#BAC8D3;fillColor=#09555B;fontSize=14;fontColor=#FFFFFF;" parent="exVIgJ18aXQR2TJx0KCJ-1" vertex="1">
          <mxGeometry x="1526" y="-760" width="100" height="40" as="geometry" />
        </mxCell>
        <mxCell id="exVIgJ18aXQR2TJx0KCJ-42" value="" style="endArrow=none;html=1;rounded=0;strokeColor=#FFFFFF;fontSize=14;fontColor=#FFFFFF;" parent="exVIgJ18aXQR2TJx0KCJ-1" source="exVIgJ18aXQR2TJx0KCJ-7" target="exVIgJ18aXQR2TJx0KCJ-41" edge="1">
          <mxGeometry relative="1" as="geometry">
            <mxPoint x="1356" y="-749" as="sourcePoint" />
            <mxPoint x="1516" y="-749" as="targetPoint" />
          </mxGeometry>
        </mxCell>
        <mxCell id="exVIgJ18aXQR2TJx0KCJ-43" value="" style="endArrow=none;html=1;rounded=0;strokeColor=#FFFFFF;fontSize=14;fontColor=#FFFFFF;" parent="exVIgJ18aXQR2TJx0KCJ-1" source="exVIgJ18aXQR2TJx0KCJ-7" target="exVIgJ18aXQR2TJx0KCJ-16" edge="1">
          <mxGeometry relative="1" as="geometry">
            <mxPoint x="1616" y="-629" as="sourcePoint" />
            <mxPoint x="1687.050979013121" y="-694.92091491776" as="targetPoint" />
          </mxGeometry>
        </mxCell>
        <mxCell id="exVIgJ18aXQR2TJx0KCJ-44" value="" style="endArrow=none;html=1;rounded=0;strokeColor=#FFFFFF;fontSize=14;fontColor=#FFFFFF;" parent="exVIgJ18aXQR2TJx0KCJ-1" source="exVIgJ18aXQR2TJx0KCJ-7" target="exVIgJ18aXQR2TJx0KCJ-45" edge="1">
          <mxGeometry relative="1" as="geometry">
            <mxPoint x="1666" y="-689" as="sourcePoint" />
            <mxPoint x="1626" y="-609" as="targetPoint" />
          </mxGeometry>
        </mxCell>
        <mxCell id="exVIgJ18aXQR2TJx0KCJ-45" value="Especialidad" style="ellipse;whiteSpace=wrap;html=1;align=center;rounded=0;sketch=0;strokeColor=#BAC8D3;fillColor=#09555B;fontSize=14;fontColor=#FFFFFF;" parent="exVIgJ18aXQR2TJx0KCJ-1" vertex="1">
          <mxGeometry x="1676" y="-707" width="100" height="40" as="geometry" />
        </mxCell>
        <mxCell id="exVIgJ18aXQR2TJx0KCJ-46" value="" style="endArrow=none;html=1;rounded=0;strokeColor=#FFFFFF;fontSize=14;fontColor=#FFFFFF;" parent="exVIgJ18aXQR2TJx0KCJ-1" source="exVIgJ18aXQR2TJx0KCJ-18" target="exVIgJ18aXQR2TJx0KCJ-8" edge="1">
          <mxGeometry relative="1" as="geometry">
            <mxPoint x="1068" y="-970" as="sourcePoint" />
            <mxPoint x="1228" y="-970" as="targetPoint" />
          </mxGeometry>
        </mxCell>
        <mxCell id="exVIgJ18aXQR2TJx0KCJ-47" value="Cod Laboratorio" style="ellipse;whiteSpace=wrap;html=1;align=center;fontStyle=4;rounded=0;sketch=0;strokeColor=#BAC8D3;fillColor=#09555B;fontSize=12;fontColor=#FFFFFF;" parent="exVIgJ18aXQR2TJx0KCJ-1" vertex="1">
          <mxGeometry x="1238" y="-1120" width="100" height="40" as="geometry" />
        </mxCell>
        <mxCell id="exVIgJ18aXQR2TJx0KCJ-48" value="" style="endArrow=none;html=1;rounded=0;strokeColor=#FFFFFF;fontSize=14;fontColor=#FFFFFF;" parent="exVIgJ18aXQR2TJx0KCJ-1" source="exVIgJ18aXQR2TJx0KCJ-47" target="exVIgJ18aXQR2TJx0KCJ-8" edge="1">
          <mxGeometry relative="1" as="geometry">
            <mxPoint x="1128" y="-1030" as="sourcePoint" />
            <mxPoint x="1177" y="-1030" as="targetPoint" />
          </mxGeometry>
        </mxCell>
        <mxCell id="exVIgJ18aXQR2TJx0KCJ-49" value="Dirección" style="ellipse;whiteSpace=wrap;html=1;align=center;rounded=0;sketch=0;strokeColor=#BAC8D3;fillColor=#09555B;fontSize=17;fontColor=#FFFFFF;" parent="exVIgJ18aXQR2TJx0KCJ-1" vertex="1">
          <mxGeometry x="1288" y="-1060" width="100" height="40" as="geometry" />
        </mxCell>
        <mxCell id="exVIgJ18aXQR2TJx0KCJ-50" value="" style="endArrow=none;html=1;rounded=0;strokeColor=#FFFFFF;fontSize=14;fontColor=#FFFFFF;" parent="exVIgJ18aXQR2TJx0KCJ-1" source="exVIgJ18aXQR2TJx0KCJ-8" target="exVIgJ18aXQR2TJx0KCJ-49" edge="1">
          <mxGeometry relative="1" as="geometry">
            <mxPoint x="1225" y="-1092" as="sourcePoint" />
            <mxPoint x="611" y="-932" as="targetPoint" />
          </mxGeometry>
        </mxCell>
        <mxCell id="exVIgJ18aXQR2TJx0KCJ-51" value="Calle" style="ellipse;whiteSpace=wrap;html=1;align=center;rounded=0;sketch=0;strokeColor=#BAC8D3;fillColor=#09555B;fontSize=14;fontColor=#FFFFFF;" parent="exVIgJ18aXQR2TJx0KCJ-1" vertex="1">
          <mxGeometry x="1351" y="-1100" width="100" height="40" as="geometry" />
        </mxCell>
        <mxCell id="exVIgJ18aXQR2TJx0KCJ-52" value="Altura" style="ellipse;whiteSpace=wrap;html=1;align=center;rounded=0;sketch=0;strokeColor=#BAC8D3;fillColor=#09555B;fontSize=14;fontColor=#FFFFFF;" parent="exVIgJ18aXQR2TJx0KCJ-1" vertex="1">
          <mxGeometry x="1398" y="-1060" width="100" height="40" as="geometry" />
        </mxCell>
        <mxCell id="exVIgJ18aXQR2TJx0KCJ-53" value="" style="endArrow=none;html=1;rounded=0;strokeColor=#FFFFFF;fontSize=14;fontColor=#FFFFFF;" parent="exVIgJ18aXQR2TJx0KCJ-1" source="exVIgJ18aXQR2TJx0KCJ-49" target="exVIgJ18aXQR2TJx0KCJ-51" edge="1">
          <mxGeometry relative="1" as="geometry">
            <mxPoint x="971" y="-1021" as="sourcePoint" />
            <mxPoint x="1131" y="-1021" as="targetPoint" />
          </mxGeometry>
        </mxCell>
        <mxCell id="exVIgJ18aXQR2TJx0KCJ-54" value="" style="endArrow=none;html=1;rounded=0;strokeColor=#FFFFFF;fontSize=14;fontColor=#FFFFFF;" parent="exVIgJ18aXQR2TJx0KCJ-1" source="exVIgJ18aXQR2TJx0KCJ-49" target="exVIgJ18aXQR2TJx0KCJ-52" edge="1">
          <mxGeometry relative="1" as="geometry">
            <mxPoint x="971" y="-1021" as="sourcePoint" />
            <mxPoint x="1131" y="-1021" as="targetPoint" />
          </mxGeometry>
        </mxCell>
        <mxCell id="exVIgJ18aXQR2TJx0KCJ-55" value="" style="endArrow=none;html=1;rounded=0;strokeColor=#FFFFFF;fontSize=14;fontColor=#FFFFFF;" parent="exVIgJ18aXQR2TJx0KCJ-1" source="exVIgJ18aXQR2TJx0KCJ-49" target="exVIgJ18aXQR2TJx0KCJ-56" edge="1">
          <mxGeometry relative="1" as="geometry">
            <mxPoint x="1301" y="-1061" as="sourcePoint" />
            <mxPoint x="1368.9980311115683" y="-1101.8505086295115" as="targetPoint" />
          </mxGeometry>
        </mxCell>
        <mxCell id="exVIgJ18aXQR2TJx0KCJ-56" value="Piso" style="ellipse;whiteSpace=wrap;html=1;align=center;rounded=0;sketch=0;strokeColor=#BAC8D3;fillColor=#09555B;fontSize=14;fontColor=#FFFFFF;" parent="exVIgJ18aXQR2TJx0KCJ-1" vertex="1">
          <mxGeometry x="1362" y="-1020" width="89" height="38" as="geometry" />
        </mxCell>
        <mxCell id="exVIgJ18aXQR2TJx0KCJ-57" value="Teléfono" style="ellipse;shape=doubleEllipse;margin=3;whiteSpace=wrap;html=1;align=center;rounded=0;sketch=0;strokeColor=#BAC8D3;fillColor=#09555B;fontSize=14;fontColor=#FFFFFF;" parent="exVIgJ18aXQR2TJx0KCJ-1" vertex="1">
          <mxGeometry x="1088" y="-1120" width="100" height="40" as="geometry" />
        </mxCell>
        <mxCell id="exVIgJ18aXQR2TJx0KCJ-58" value="" style="endArrow=none;html=1;rounded=0;strokeColor=#FFFFFF;fontSize=14;fontColor=#FFFFFF;" parent="exVIgJ18aXQR2TJx0KCJ-1" source="exVIgJ18aXQR2TJx0KCJ-57" target="exVIgJ18aXQR2TJx0KCJ-8" edge="1">
          <mxGeometry relative="1" as="geometry">
            <mxPoint x="1167.4889810885165" y="-996.4359506279907" as="sourcePoint" />
            <mxPoint x="1191.8000000000002" y="-1010" as="targetPoint" />
          </mxGeometry>
        </mxCell>
        <mxCell id="exVIgJ18aXQR2TJx0KCJ-59" value="" style="endArrow=none;html=1;rounded=0;strokeColor=#FFFFFF;fontSize=12;fontColor=#FFFFFF;" parent="exVIgJ18aXQR2TJx0KCJ-1" source="exVIgJ18aXQR2TJx0KCJ-17" target="exVIgJ18aXQR2TJx0KCJ-9" edge="1">
          <mxGeometry relative="1" as="geometry">
            <mxPoint x="1502" y="-249" as="sourcePoint" />
            <mxPoint x="1662" y="-249" as="targetPoint" />
          </mxGeometry>
        </mxCell>
        <mxCell id="exVIgJ18aXQR2TJx0KCJ-60" value="Dirección" style="ellipse;whiteSpace=wrap;html=1;align=center;rounded=0;sketch=0;strokeColor=#BAC8D3;fillColor=#09555B;fontSize=17;fontColor=#FFFFFF;" parent="exVIgJ18aXQR2TJx0KCJ-1" vertex="1">
          <mxGeometry x="1658" y="-271" width="100" height="40" as="geometry" />
        </mxCell>
        <mxCell id="exVIgJ18aXQR2TJx0KCJ-62" value="Calle" style="ellipse;whiteSpace=wrap;html=1;align=center;rounded=0;sketch=0;strokeColor=#BAC8D3;fillColor=#09555B;fontSize=14;fontColor=#FFFFFF;" parent="exVIgJ18aXQR2TJx0KCJ-1" vertex="1">
          <mxGeometry x="1556" y="-221" width="100" height="40" as="geometry" />
        </mxCell>
        <mxCell id="exVIgJ18aXQR2TJx0KCJ-63" value="Altura" style="ellipse;whiteSpace=wrap;html=1;align=center;rounded=0;sketch=0;strokeColor=#BAC8D3;fillColor=#09555B;fontSize=14;fontColor=#FFFFFF;" parent="exVIgJ18aXQR2TJx0KCJ-1" vertex="1">
          <mxGeometry x="1758" y="-224" width="100" height="40" as="geometry" />
        </mxCell>
        <mxCell id="exVIgJ18aXQR2TJx0KCJ-64" value="" style="endArrow=none;html=1;rounded=0;strokeColor=#FFFFFF;fontSize=14;fontColor=#FFFFFF;" parent="exVIgJ18aXQR2TJx0KCJ-1" source="exVIgJ18aXQR2TJx0KCJ-60" target="exVIgJ18aXQR2TJx0KCJ-62" edge="1">
          <mxGeometry relative="1" as="geometry">
            <mxPoint x="1377" y="-291" as="sourcePoint" />
            <mxPoint x="1537" y="-291" as="targetPoint" />
          </mxGeometry>
        </mxCell>
        <mxCell id="exVIgJ18aXQR2TJx0KCJ-65" value="" style="endArrow=none;html=1;rounded=0;strokeColor=#FFFFFF;fontSize=14;fontColor=#FFFFFF;" parent="exVIgJ18aXQR2TJx0KCJ-1" source="exVIgJ18aXQR2TJx0KCJ-60" target="exVIgJ18aXQR2TJx0KCJ-63" edge="1">
          <mxGeometry relative="1" as="geometry">
            <mxPoint x="1377" y="-291" as="sourcePoint" />
            <mxPoint x="1537" y="-291" as="targetPoint" />
          </mxGeometry>
        </mxCell>
        <mxCell id="exVIgJ18aXQR2TJx0KCJ-66" value="" style="endArrow=none;html=1;rounded=0;strokeColor=#FFFFFF;fontSize=14;fontColor=#FFFFFF;" parent="exVIgJ18aXQR2TJx0KCJ-1" source="exVIgJ18aXQR2TJx0KCJ-60" target="exVIgJ18aXQR2TJx0KCJ-67" edge="1">
          <mxGeometry relative="1" as="geometry">
            <mxPoint x="1707" y="-331" as="sourcePoint" />
            <mxPoint x="1774.9980311115683" y="-371.8505086295115" as="targetPoint" />
          </mxGeometry>
        </mxCell>
        <mxCell id="exVIgJ18aXQR2TJx0KCJ-67" value="Piso" style="ellipse;whiteSpace=wrap;html=1;align=center;rounded=0;sketch=0;strokeColor=#BAC8D3;fillColor=#09555B;fontSize=14;fontColor=#FFFFFF;" parent="exVIgJ18aXQR2TJx0KCJ-1" vertex="1">
          <mxGeometry x="1663.5" y="-189" width="89" height="38" as="geometry" />
        </mxCell>
        <mxCell id="exVIgJ18aXQR2TJx0KCJ-69" value="" style="endArrow=none;html=1;rounded=0;strokeColor=#FFFFFF;fontSize=14;fontColor=#FFFFFF;" parent="exVIgJ18aXQR2TJx0KCJ-1" source="exVIgJ18aXQR2TJx0KCJ-60" target="exVIgJ18aXQR2TJx0KCJ-9" edge="1">
          <mxGeometry relative="1" as="geometry">
            <mxPoint x="1674.731943008882" y="-488.10047403499425" as="sourcePoint" />
            <mxPoint x="1686" y="-331.4814814814815" as="targetPoint" />
          </mxGeometry>
        </mxCell>
        <mxCell id="exVIgJ18aXQR2TJx0KCJ-70" value="Numero&lt;br&gt;Registro" style="ellipse;whiteSpace=wrap;html=1;align=center;fontStyle=4;rounded=0;sketch=0;strokeColor=#BAC8D3;fillColor=#09555B;fontSize=12;fontColor=#FFFFFF;" parent="exVIgJ18aXQR2TJx0KCJ-1" vertex="1">
          <mxGeometry x="1476" y="-271" width="100" height="40" as="geometry" />
        </mxCell>
        <mxCell id="exVIgJ18aXQR2TJx0KCJ-71" value="" style="endArrow=none;html=1;rounded=0;strokeColor=#FFFFFF;fontSize=14;fontColor=#FFFFFF;" parent="exVIgJ18aXQR2TJx0KCJ-1" source="exVIgJ18aXQR2TJx0KCJ-9" target="exVIgJ18aXQR2TJx0KCJ-70" edge="1">
          <mxGeometry relative="1" as="geometry">
            <mxPoint x="1717.5" y="-308" as="sourcePoint" />
            <mxPoint x="1521" y="-287" as="targetPoint" />
          </mxGeometry>
        </mxCell>
        <mxCell id="exVIgJ18aXQR2TJx0KCJ-72" value="Numero&lt;br&gt;Cama" style="ellipse;whiteSpace=wrap;html=1;align=center;fontStyle=4;rounded=0;sketch=0;strokeColor=#BAC8D3;fillColor=#09555B;fontSize=12;fontColor=#FFFFFF;" parent="exVIgJ18aXQR2TJx0KCJ-1" vertex="1">
          <mxGeometry x="1658" y="-390" width="100" height="40" as="geometry" />
        </mxCell>
        <mxCell id="exVIgJ18aXQR2TJx0KCJ-73" value="" style="endArrow=none;html=1;rounded=0;strokeColor=#FFFFFF;fontSize=14;fontColor=#FFFFFF;" parent="exVIgJ18aXQR2TJx0KCJ-1" source="exVIgJ18aXQR2TJx0KCJ-9" target="exVIgJ18aXQR2TJx0KCJ-72" edge="1">
          <mxGeometry relative="1" as="geometry">
            <mxPoint x="1590" y="-289" as="sourcePoint" />
            <mxPoint x="1568.9526848211685" y="-275.8454280132303" as="targetPoint" />
          </mxGeometry>
        </mxCell>
        <mxCell id="exVIgJ18aXQR2TJx0KCJ-75" value="Cod Diagnostico" style="ellipse;whiteSpace=wrap;html=1;align=center;fontStyle=4;rounded=0;sketch=0;strokeColor=#BAC8D3;fillColor=#09555B;fontSize=12;fontColor=#FFFFFF;" parent="exVIgJ18aXQR2TJx0KCJ-1" vertex="1">
          <mxGeometry x="2118" y="-330" width="100" height="40" as="geometry" />
        </mxCell>
        <mxCell id="exVIgJ18aXQR2TJx0KCJ-76" value="Tipo" style="ellipse;whiteSpace=wrap;html=1;align=center;rounded=0;sketch=0;strokeColor=#BAC8D3;fillColor=#09555B;fontSize=12;fontColor=#FFFFFF;" parent="exVIgJ18aXQR2TJx0KCJ-1" vertex="1">
          <mxGeometry x="1998" y="-390" width="100" height="40" as="geometry" />
        </mxCell>
        <mxCell id="exVIgJ18aXQR2TJx0KCJ-77" value="Complicaciones" style="ellipse;whiteSpace=wrap;html=1;align=center;rounded=0;sketch=0;strokeColor=#BAC8D3;fillColor=#09555B;fontSize=12;fontColor=#FFFFFF;" parent="exVIgJ18aXQR2TJx0KCJ-1" vertex="1">
          <mxGeometry x="1998" y="-271" width="100" height="40" as="geometry" />
        </mxCell>
        <mxCell id="exVIgJ18aXQR2TJx0KCJ-78" value="Tiene" style="shape=rhombus;perimeter=rhombusPerimeter;whiteSpace=wrap;html=1;align=center;rounded=0;sketch=0;strokeColor=#BAC8D3;fillColor=#09555B;fontSize=12;fontColor=#FFFFFF;" parent="exVIgJ18aXQR2TJx0KCJ-1" vertex="1">
          <mxGeometry x="1152.5" y="-540" width="120" height="60" as="geometry" />
        </mxCell>
        <mxCell id="exVIgJ18aXQR2TJx0KCJ-79" value="(1,1)" style="endArrow=none;html=1;rounded=0;strokeColor=#FFFFFF;fontSize=12;fontColor=#FFFFFF;" parent="exVIgJ18aXQR2TJx0KCJ-1" source="exVIgJ18aXQR2TJx0KCJ-3" target="exVIgJ18aXQR2TJx0KCJ-78" edge="1">
          <mxGeometry relative="1" as="geometry">
            <mxPoint x="1186" y="-519" as="sourcePoint" />
            <mxPoint x="1218" y="-589" as="targetPoint" />
          </mxGeometry>
        </mxCell>
        <mxCell id="exVIgJ18aXQR2TJx0KCJ-80" value="(1,n)" style="endArrow=none;html=1;rounded=0;strokeColor=#FFFFFF;fontSize=12;fontColor=#FFFFFF;" parent="exVIgJ18aXQR2TJx0KCJ-1" source="exVIgJ18aXQR2TJx0KCJ-6" target="exVIgJ18aXQR2TJx0KCJ-78" edge="1">
          <mxGeometry relative="1" as="geometry">
            <mxPoint x="1226.3603603603606" y="-501" as="sourcePoint" />
            <mxPoint x="1212.5" y="-390" as="targetPoint" />
          </mxGeometry>
        </mxCell>
        <mxCell id="exVIgJ18aXQR2TJx0KCJ-81" value="Cod Hospital" style="ellipse;whiteSpace=wrap;html=1;align=center;fontStyle=4;rounded=0;sketch=0;strokeColor=#BAC8D3;fillColor=#09555B;fontSize=12;fontColor=#FFFFFF;" parent="exVIgJ18aXQR2TJx0KCJ-1" vertex="1">
          <mxGeometry x="1162.5" y="-261" width="100" height="40" as="geometry" />
        </mxCell>
        <mxCell id="exVIgJ18aXQR2TJx0KCJ-82" value="" style="endArrow=none;html=1;rounded=0;strokeColor=#FFFFFF;fontSize=12;fontColor=#FFFFFF;" parent="exVIgJ18aXQR2TJx0KCJ-1" source="exVIgJ18aXQR2TJx0KCJ-6" target="exVIgJ18aXQR2TJx0KCJ-81" edge="1">
          <mxGeometry relative="1" as="geometry">
            <mxPoint x="1166" y="-240" as="sourcePoint" />
            <mxPoint x="1326" y="-240" as="targetPoint" />
          </mxGeometry>
        </mxCell>
        <mxCell id="exVIgJ18aXQR2TJx0KCJ-83" value="" style="endArrow=none;html=1;rounded=0;strokeColor=#FFFFFF;fontSize=12;fontColor=#FFFFFF;" parent="exVIgJ18aXQR2TJx0KCJ-1" source="exVIgJ18aXQR2TJx0KCJ-10" target="exVIgJ18aXQR2TJx0KCJ-77" edge="1">
          <mxGeometry relative="1" as="geometry">
            <mxPoint x="2008" y="-179" as="sourcePoint" />
            <mxPoint x="2168" y="-179" as="targetPoint" />
          </mxGeometry>
        </mxCell>
        <mxCell id="exVIgJ18aXQR2TJx0KCJ-84" value="" style="endArrow=none;html=1;rounded=0;strokeColor=#FFFFFF;fontSize=12;fontColor=#FFFFFF;" parent="exVIgJ18aXQR2TJx0KCJ-1" source="exVIgJ18aXQR2TJx0KCJ-10" target="exVIgJ18aXQR2TJx0KCJ-75" edge="1">
          <mxGeometry relative="1" as="geometry">
            <mxPoint x="2030.5" y="-279" as="sourcePoint" />
            <mxPoint x="2077.4817661335887" y="-237.23843010347673" as="targetPoint" />
          </mxGeometry>
        </mxCell>
        <mxCell id="exVIgJ18aXQR2TJx0KCJ-85" value="" style="endArrow=none;html=1;rounded=0;strokeColor=#FFFFFF;fontSize=12;fontColor=#FFFFFF;" parent="exVIgJ18aXQR2TJx0KCJ-1" source="exVIgJ18aXQR2TJx0KCJ-10" target="exVIgJ18aXQR2TJx0KCJ-76" edge="1">
          <mxGeometry relative="1" as="geometry">
            <mxPoint x="2058" y="-292.75" as="sourcePoint" />
            <mxPoint x="2120.2760010982483" y="-284.96549986271884" as="targetPoint" />
          </mxGeometry>
        </mxCell>
        <mxCell id="exVIgJ18aXQR2TJx0KCJ-87" value="Trabaja" style="shape=rhombus;perimeter=rhombusPerimeter;whiteSpace=wrap;html=1;align=center;rounded=0;sketch=0;strokeColor=#BAC8D3;fillColor=#09555B;fontSize=12;fontColor=#FFFFFF;" parent="exVIgJ18aXQR2TJx0KCJ-1" vertex="1">
          <mxGeometry x="1366" y="-717" width="120" height="60" as="geometry" />
        </mxCell>
        <mxCell id="exVIgJ18aXQR2TJx0KCJ-88" value="(1,1)" style="endArrow=none;html=1;rounded=0;strokeColor=#FFFFFF;fontSize=12;fontColor=#FFFFFF;" parent="exVIgJ18aXQR2TJx0KCJ-1" source="exVIgJ18aXQR2TJx0KCJ-3" target="exVIgJ18aXQR2TJx0KCJ-87" edge="1">
          <mxGeometry relative="1" as="geometry">
            <mxPoint x="1306" y="-609" as="sourcePoint" />
            <mxPoint x="1466" y="-609" as="targetPoint" />
          </mxGeometry>
        </mxCell>
        <mxCell id="exVIgJ18aXQR2TJx0KCJ-89" value="(1,n)" style="endArrow=none;html=1;rounded=0;strokeColor=#FFFFFF;fontSize=12;fontColor=#FFFFFF;" parent="exVIgJ18aXQR2TJx0KCJ-1" source="exVIgJ18aXQR2TJx0KCJ-7" target="exVIgJ18aXQR2TJx0KCJ-87" edge="1">
          <mxGeometry relative="1" as="geometry">
            <mxPoint x="1276" y="-679.2857142857142" as="sourcePoint" />
            <mxPoint x="1377.6666666666665" y="-677.8333333333333" as="targetPoint" />
            <Array as="points">
              <mxPoint x="1536" y="-688" />
            </Array>
          </mxGeometry>
        </mxCell>
        <mxCell id="exVIgJ18aXQR2TJx0KCJ-90" value="Presta&lt;br&gt;Servicios" style="shape=rhombus;perimeter=rhombusPerimeter;whiteSpace=wrap;html=1;align=center;rounded=0;sketch=0;strokeColor=#BAC8D3;fillColor=#09555B;fontSize=12;fontColor=#FFFFFF;" parent="exVIgJ18aXQR2TJx0KCJ-1" vertex="1">
          <mxGeometry x="1152.5" y="-910" width="120" height="60" as="geometry" />
        </mxCell>
        <mxCell id="exVIgJ18aXQR2TJx0KCJ-91" value="(1,n)" style="endArrow=none;html=1;rounded=0;strokeColor=#FFFFFF;fontSize=12;fontColor=#FFFFFF;" parent="exVIgJ18aXQR2TJx0KCJ-1" source="exVIgJ18aXQR2TJx0KCJ-8" target="exVIgJ18aXQR2TJx0KCJ-90" edge="1">
          <mxGeometry relative="1" as="geometry">
            <mxPoint x="1198" y="-910" as="sourcePoint" />
            <mxPoint x="1216.2714932126696" y="-959.8642533936652" as="targetPoint" />
          </mxGeometry>
        </mxCell>
        <mxCell id="exVIgJ18aXQR2TJx0KCJ-92" value="(1,n)" style="endArrow=none;html=1;rounded=0;strokeColor=#FFFFFF;fontSize=12;fontColor=#FFFFFF;" parent="exVIgJ18aXQR2TJx0KCJ-1" source="exVIgJ18aXQR2TJx0KCJ-3" target="exVIgJ18aXQR2TJx0KCJ-90" edge="1">
          <mxGeometry relative="1" as="geometry">
            <mxPoint x="1227.1428571428573" y="-990" as="sourcePoint" />
            <mxPoint x="1227.7864768683276" y="-899.8932384341638" as="targetPoint" />
          </mxGeometry>
        </mxCell>
        <mxCell id="exVIgJ18aXQR2TJx0KCJ-93" value="Descripción" style="ellipse;whiteSpace=wrap;html=1;align=center;rounded=0;sketch=0;strokeColor=#BAC8D3;fillColor=#09555B;fontSize=12;fontColor=#FFFFFF;" parent="exVIgJ18aXQR2TJx0KCJ-1" vertex="1">
          <mxGeometry x="1018" y="-930" width="100" height="40" as="geometry" />
        </mxCell>
        <mxCell id="exVIgJ18aXQR2TJx0KCJ-94" value="Fecha&lt;br&gt;Realización" style="ellipse;whiteSpace=wrap;html=1;align=center;rounded=0;sketch=0;strokeColor=#BAC8D3;fillColor=#09555B;fontSize=12;fontColor=#FFFFFF;" parent="exVIgJ18aXQR2TJx0KCJ-1" vertex="1">
          <mxGeometry x="1018" y="-870" width="100" height="40" as="geometry" />
        </mxCell>
        <mxCell id="exVIgJ18aXQR2TJx0KCJ-96" value="" style="endArrow=none;html=1;rounded=0;strokeColor=#FFFFFF;fontSize=12;fontColor=#FFFFFF;" parent="exVIgJ18aXQR2TJx0KCJ-1" source="exVIgJ18aXQR2TJx0KCJ-93" target="exVIgJ18aXQR2TJx0KCJ-90" edge="1">
          <mxGeometry relative="1" as="geometry">
            <mxPoint x="1098" y="-880" as="sourcePoint" />
            <mxPoint x="1258" y="-880" as="targetPoint" />
          </mxGeometry>
        </mxCell>
        <mxCell id="exVIgJ18aXQR2TJx0KCJ-97" value="" style="endArrow=none;html=1;rounded=0;strokeColor=#FFFFFF;fontSize=12;fontColor=#FFFFFF;" parent="exVIgJ18aXQR2TJx0KCJ-1" source="exVIgJ18aXQR2TJx0KCJ-94" target="exVIgJ18aXQR2TJx0KCJ-90" edge="1">
          <mxGeometry relative="1" as="geometry">
            <mxPoint x="958" y="-830" as="sourcePoint" />
            <mxPoint x="1118" y="-830" as="targetPoint" />
          </mxGeometry>
        </mxCell>
        <mxCell id="exVIgJ18aXQR2TJx0KCJ-99" value="(0,1)" style="endArrow=none;html=1;rounded=0;strokeColor=#FFFFFF;fontSize=12;fontColor=#FFFFFF;" parent="exVIgJ18aXQR2TJx0KCJ-1" source="exVIgJ18aXQR2TJx0KCJ-6" target="exVIgJ18aXQR2TJx0KCJ-100" edge="1">
          <mxGeometry relative="1" as="geometry">
            <mxPoint x="1288" y="-271" as="sourcePoint" />
            <mxPoint x="1358" y="-310" as="targetPoint" />
          </mxGeometry>
        </mxCell>
        <mxCell id="exVIgJ18aXQR2TJx0KCJ-100" value="Internado" style="shape=rhombus;perimeter=rhombusPerimeter;whiteSpace=wrap;html=1;align=center;rounded=0;sketch=0;strokeColor=#BAC8D3;fillColor=#09555B;fontSize=12;fontColor=#FFFFFF;" parent="exVIgJ18aXQR2TJx0KCJ-1" vertex="1">
          <mxGeometry x="1362" y="-340" width="120" height="60" as="geometry" />
        </mxCell>
        <mxCell id="exVIgJ18aXQR2TJx0KCJ-101" value="(0,n)" style="endArrow=none;html=1;rounded=0;strokeColor=#FFFFFF;fontSize=12;fontColor=#FFFFFF;" parent="exVIgJ18aXQR2TJx0KCJ-1" source="exVIgJ18aXQR2TJx0KCJ-100" target="exVIgJ18aXQR2TJx0KCJ-9" edge="1">
          <mxGeometry relative="1" as="geometry">
            <mxPoint x="1368" y="-261" as="sourcePoint" />
            <mxPoint x="1528" y="-261" as="targetPoint" />
          </mxGeometry>
        </mxCell>
        <mxCell id="exVIgJ18aXQR2TJx0KCJ-103" value="Atiende" style="shape=rhombus;perimeter=rhombusPerimeter;whiteSpace=wrap;html=1;align=center;rounded=0;sketch=0;strokeColor=#BAC8D3;fillColor=#09555B;fontSize=12;fontColor=#FFFFFF;" parent="exVIgJ18aXQR2TJx0KCJ-1" vertex="1">
          <mxGeometry x="1556" y="-540" width="120" height="60" as="geometry" />
        </mxCell>
        <mxCell id="exVIgJ18aXQR2TJx0KCJ-104" value="(1,n)" style="endArrow=none;html=1;rounded=0;strokeColor=#FFFFFF;fontSize=12;fontColor=#FFFFFF;" parent="exVIgJ18aXQR2TJx0KCJ-1" source="exVIgJ18aXQR2TJx0KCJ-7" target="exVIgJ18aXQR2TJx0KCJ-103" edge="1">
          <mxGeometry relative="1" as="geometry">
            <mxPoint x="1598" y="-430" as="sourcePoint" />
            <mxPoint x="1758" y="-430" as="targetPoint" />
          </mxGeometry>
        </mxCell>
        <mxCell id="exVIgJ18aXQR2TJx0KCJ-105" value="(1,n)" style="endArrow=none;html=1;rounded=0;strokeColor=#FFFFFF;fontSize=12;fontColor=#FFFFFF;" parent="exVIgJ18aXQR2TJx0KCJ-1" source="exVIgJ18aXQR2TJx0KCJ-9" target="exVIgJ18aXQR2TJx0KCJ-103" edge="1">
          <mxGeometry relative="1" as="geometry">
            <mxPoint x="1626" y="-659" as="sourcePoint" />
            <mxPoint x="1626" y="-530" as="targetPoint" />
          </mxGeometry>
        </mxCell>
        <mxCell id="exVIgJ18aXQR2TJx0KCJ-106" value="" style="endArrow=none;html=1;rounded=0;strokeColor=#FFFFFF;fontSize=12;fontColor=#FFFFFF;" parent="exVIgJ18aXQR2TJx0KCJ-1" source="exVIgJ18aXQR2TJx0KCJ-103" target="exVIgJ18aXQR2TJx0KCJ-107" edge="1">
          <mxGeometry relative="1" as="geometry">
            <mxPoint x="1688" y="-460" as="sourcePoint" />
            <mxPoint x="1848" y="-460" as="targetPoint" />
          </mxGeometry>
        </mxCell>
        <mxCell id="exVIgJ18aXQR2TJx0KCJ-107" value="Fecha&lt;br&gt;Atención" style="ellipse;whiteSpace=wrap;html=1;align=center;rounded=0;sketch=0;strokeColor=#BAC8D3;fillColor=#09555B;fontSize=12;fontColor=#FFFFFF;" parent="exVIgJ18aXQR2TJx0KCJ-1" vertex="1">
          <mxGeometry x="1451" y="-530" width="70" height="40" as="geometry" />
        </mxCell>
        <mxCell id="exVIgJ18aXQR2TJx0KCJ-108" value="Tiene" style="shape=rhombus;perimeter=rhombusPerimeter;whiteSpace=wrap;html=1;align=center;rounded=0;sketch=0;strokeColor=#BAC8D3;fillColor=#09555B;fontSize=12;fontColor=#FFFFFF;" parent="exVIgJ18aXQR2TJx0KCJ-1" vertex="1">
          <mxGeometry x="1786" y="-340" width="120" height="60" as="geometry" />
        </mxCell>
        <mxCell id="exVIgJ18aXQR2TJx0KCJ-109" value="(1,1)" style="endArrow=none;html=1;rounded=0;strokeColor=#FFFFFF;fontSize=12;fontColor=#FFFFFF;" parent="exVIgJ18aXQR2TJx0KCJ-1" source="exVIgJ18aXQR2TJx0KCJ-9" target="exVIgJ18aXQR2TJx0KCJ-108" edge="1">
          <mxGeometry relative="1" as="geometry">
            <mxPoint x="1628" y="-310" as="sourcePoint" />
            <mxPoint x="1788" y="-310" as="targetPoint" />
          </mxGeometry>
        </mxCell>
        <mxCell id="exVIgJ18aXQR2TJx0KCJ-110" value="Fecha Realización" style="ellipse;whiteSpace=wrap;html=1;align=center;rounded=0;sketch=0;strokeColor=#BAC8D3;fillColor=#09555B;fontSize=12;fontColor=#FFFFFF;" parent="exVIgJ18aXQR2TJx0KCJ-1" vertex="1">
          <mxGeometry x="1796" y="-430" width="100" height="40" as="geometry" />
        </mxCell>
        <mxCell id="exVIgJ18aXQR2TJx0KCJ-111" value="" style="endArrow=none;html=1;rounded=0;strokeColor=#FFFFFF;fontSize=12;fontColor=#FFFFFF;" parent="exVIgJ18aXQR2TJx0KCJ-1" source="exVIgJ18aXQR2TJx0KCJ-108" target="exVIgJ18aXQR2TJx0KCJ-110" edge="1">
          <mxGeometry relative="1" as="geometry">
            <mxPoint x="1898" y="-250" as="sourcePoint" />
            <mxPoint x="2058" y="-250" as="targetPoint" />
          </mxGeometry>
        </mxCell>
        <mxCell id="exVIgJ18aXQR2TJx0KCJ-112" value="(0,n)" style="endArrow=none;html=1;rounded=0;strokeColor=#FFFFFF;fontSize=12;fontColor=#FFFFFF;" parent="exVIgJ18aXQR2TJx0KCJ-1" source="exVIgJ18aXQR2TJx0KCJ-108" target="exVIgJ18aXQR2TJx0KCJ-10" edge="1">
          <mxGeometry relative="1" as="geometry">
            <mxPoint x="2078" y="-160" as="sourcePoint" />
            <mxPoint x="2238" y="-160" as="targetPoint" />
          </mxGeometry>
        </mxCell>
      </root>
    </mxGraphModel>
  </diagram>
</mxfile>
